<?xml version="1.0" encoding="UTF-8" standalone="no"?>
<!-- Created with Inkscape (http://www.inkscape.org/) -->

<svg
   version="1.1"
   id="svg1"
   width="2627.8401"
   height="784"
   viewBox="0 0 2627.8401 784"
   xml:space="preserve"
   xmlns="http://www.w3.org/2000/svg"
   xmlns:svg="http://www.w3.org/2000/svg"><defs
     id="defs1" /><g
     id="g1"><path
       style="fill:#000000;stroke:none;stroke-width:0.969715"
       d="m 2487.4771,764.52123 c 13.9165,-1.76093 27.2629,-3.50014 40.4581,-8.54551 37.5488,-14.35748 65.9338,-44.42245 78.1698,-81.37062 7.8148,-23.59781 5.907,-48.69225 5.907,-73.11464 V 489.99063 256.02376 178.6441 c 0,-12.82973 1.1534,-26.22551 -0.1073,-38.99448 -4.7456,-48.062936 -31.6505,-88.864536 -77.648,-109.805476 -27.1656,-12.36755 -56.0799,-11.443 -85.3411,-11.443 H 2340.8168 1919.1683 651.69426 281.88266 181.36976 c -27.4428,0 -54.1622,-0.98072 -80.284,8.56911 -49.243903,18.00293 -81.109203,63.42232 -84.652403,113.288656 -2.4139,33.97272 -0.056,68.90829 -0.056,102.9698 v 208.98601 131.60637 c 0,24.6692 -2.3144,50.55665 1.9478,74.94251 8.5721,49.04595 47.6036,89.28519 97.300703,101.91298 30.3953,7.72329 64.2832,4.10325 95.4556,4.10325 h 168.7854 549.9763 1046.85144 342.6289 111.8917 c 18.3231,0 38.1032,2.03917 56.2619,-0.2586 z"
       id="path1" /><path
       style="fill:#8363af;stroke:none;stroke-width:0.975471"
       d="m 135.53066,16.644977 c -13.97368,1.774602 -27.37492,3.527317 -40.624278,8.611869 -37.722245,14.476238 -66.187254,44.751718 -78.491103,82.002454 -7.8572691,23.78839 -5.93123,49.06027 -5.93123,73.68238 v 112.36564 235.7836 77.98054 c 0,12.92934 -1.1581909,26.42916 0.107752,39.29726 4.766579,48.45158 31.756969,89.54376 77.967035,110.65811 27.277314,12.46358 56.310314,11.53184 85.691834,11.53184 h 108.543 423.38116 1272.68237 371.3314 100.9259 c 27.5556,0 54.3848,0.98835 80.6139,-8.63563 49.4664,-18.15007 81.4412,-63.89674 85.0002,-114.16833 2.4669,-34.84406 0.058,-70.67627 0.058,-105.61142 v -213.6789 -129.5582 c 0,-24.64676 2.3707,-50.57906 -2.1737,-74.91042 -9.276,-49.66312 -48.6607,-89.070348 -98.7531,-101.832546 -29.9462,-7.629601 -63.8694,-3.77886 -94.5783,-3.77886 H 2251.1669 1698.2959 647.14267 303.74056 192.0238 c -18.39839,0 -38.25982,-2.055003 -56.49314,0.260613 m 1.26949,42.896092 c 17.70683,-2.022247 36.75118,-0.175316 54.58889,-0.175316 h 109.17775 332.61129 1015.60692 578.896 181.5397 55.2237 c 13.2193,0 26.3827,-0.634482 39.3547,2.241937 9.1379,2.026221 18.0817,5.39486 26.0249,10.235064 7.1015,4.327295 13.1788,9.348137 19.0333,15.153892 28.5932,28.354944 23.4954,68.169174 23.4954,104.383374 v 384.99043 c 0,45.65596 8.5523,98.06555 -33.0072,130.2902 -6.3427,4.91785 -13.4314,9.13871 -20.947,12.1553 -21.1813,8.50168 -43.5947,6.76134 -66.0144,6.76134 H 2350.8234 1983.3006 705.54006 289.77597 176.15495 c -23.37455,0 -47.33359,2.12223 -69.18824,-7.55773 C 99.46975,714.69897 92.250661,710.37909 86.019821,705.13699 45.018843,670.64207 54.916852,615.46527 54.916852,568.3882 V 182.78374 c 0,-17.79 -2.220249,-37.17765 1.689739,-54.64777 8.557841,-38.237046 40.69038,-64.083444 80.193559,-68.594901 z"
       id="path2" /><path
       style="fill:#ffffff;stroke:none"
       d="m 749.44002,301.0973 c -24.30023,4.38301 -17.42961,42.21895 7.04,37.8054 24.38399,-4.39813 17.40688,-42.21485 -7.04,-37.8054 M 1382.4,305.28 v 23.04 h 34.56 v 124.16 h -39.04 v 23.04 h 104.32 v -23.04 h -35.2 v -147.2 h -64.64 m 135.6801,0 v 23.04 h 34.56 v 124.16 h -39.04 v 23.04 h 104.32 v -23.04 h -35.2 v -147.2 h -64.64 m -359.0401,8.96 -19.84,5.35902 -8.5738,2.78668 -1.0262,8.4943 v 22.4 h -32.64 v 23.04 h 32.64 c 0,20.94352 -1.4529,42.52391 0.5314,63.36 0.9749,10.23664 2.2912,20.60188 10.3738,28.04195 10.0026,9.2075 24.8466,10.36297 37.7348,10.35805 9.8825,-0.004 19.7697,-1.96469 29.44,-3.84 v -23.68 c -11.5776,2.3884 -28.8149,7.98867 -39.68,0.73383 -7.7967,-5.20602 -8.32,-14.61711 -8.32,-23.13383 v -51.84 h 48 v -23.04 h -48 V 326.4 l -0.64,-12.16 m -840.31999,81.28 c -9.14182,6.16723 -18.24502,11.97055 -23.92594,21.76 -10.8475,18.69262 -5.29545,43.51086 14.32594,53.59406 33.35602,17.14137 90.89731,6.56352 90.88,-38.23406 -0.003,-8.14145 -2.28246,-15.64937 -6.87754,-22.4 -5.29086,-7.77281 -13.43894,-13.95457 -21.92246,-17.92 8.28219,-6.36621 16.43121,-11.44172 21.27407,-21.12 9.66523,-19.3157 3.30679,-41.29883 -16.79407,-50.36051 -30.99004,-13.97066 -88.39108,-2.72359 -82.74025,40.76051 0.85472,6.5773 2.72263,12.49246 6.68197,17.92 4.81773,6.60426 11.68998,12.49539 19.09828,16 m 138.24,-11.52 c 0.003,-4.81082 0.71594,-9.44398 2.01926,-14.08 8.4368,-30.01055 42.53516,-26.88 67.10075,-26.88 v -24.96 c -30.91657,0 -67.42997,-0.55699 -87.02172,28.16 -11.23172,16.46309 -13.87075,36.88035 -14.10075,56.32 -0.3798,32.1027 6.77735,69.30367 44.80247,74.69727 5.84207,0.82867 12.03195,1.33699 17.92,0.64 7.74152,-0.91637 15.27933,-2.48973 22.4,-5.77532 27.32843,-12.60968 39.80004,-54.06273 19.62961,-78.52195 -16.17938,-19.61953 -51.38141,-21.7491 -72.74962,-9.6 m -117.76,-45.8948 c 8.64785,-1.12383 21.62883,-0.31368 27.10274,7.49726 8.23179,11.74629 -5.14204,32.89902 -18.14274,34.65285 -3.73875,0.50438 -8.40363,-3.3623 -11.52,-5.06816 -11.74353,-6.42828 -24.43641,-25.73567 -7.04,-34.4652 2.9174,-1.46394 6.37783,-2.198 9.6,-2.61675 M 862.08003,371.2 h -0.64 l -0.64,-17.92 h -25.6 v 122.24 h 29.44 v -56.96 c 0,-6.90223 -1.98695,-17.20777 2.17187,-23.04 6.61032,-9.27008 21.36071,-26.57457 34.30563,-17.50273 8.59141,6.02089 7.0425,17.99742 7.0425,27.10273 v 70.4 h 29.44 v -67.2 c 0,-13.90859 1.01594,-28.36078 -5.96,-40.96 -13.53344,-24.44273 -57.87211,-21.25895 -69.56,3.84 m 110.72,75.52 v 26.24 c 24.42383,5.04113 53.86997,10.01469 77.43997,-1.13977 18.8896,-8.93945 29.2616,-33.74105 15.8983,-51.97972 -9.6891,-13.22414 -29.5012,-16.00293 -44.0583,-20.90766 -6.1493,-2.07191 -16.1414,-5.46953 -17.1338,-13.01285 -1.0027,-7.6225 7.007,-11.74285 13.2938,-12.84891 14.4065,-2.53453 30.4969,1.36461 44.16,5.80891 v -16.64 c 0,-1.8659 0.5703,-4.99617 -0.6577,-6.5743 -1.272,-1.63465 -4.5049,-1.77492 -6.3823,-2.1141 -5.5258,-0.9984 -11.0451,-1.83828 -16.64,-2.2484 -21.3504,-1.56504 -52.28794,-0.3841 -62.78317,22.4568 -2.20641,4.80191 -3.55758,10.72629 -2.86516,16 3.0936,23.56156 21.13344,29.31871 41.32833,35.62172 7.6021,2.37269 18.935,4.60344 23.5877,11.76348 5.9005,9.08027 -4.7336,16.42835 -12.7077,17.84097 -17.8539,3.16281 -35.7627,-2.8173 -52.47997,-8.26617 m 274.55997,-64 c 14.5536,-4.95406 27.8669,-9.78367 43.52,-9.59754 8.7804,0.10441 18.3145,3.43227 21.805,12.15754 1.9125,4.78078 1.235,10.31602 1.235,15.36 -20.929,0 -45.2967,-1.44527 -62.7175,12.44988 -21.1396,16.86145 -15.9614,54.11012 10.2375,62.84297 13.8071,4.60231 30.4918,2.20223 42.88,-5.18273 5.0026,-2.98219 8.7476,-7.28465 13.44,-10.59012 l 0.64,15.36 h 24.96 V 403.2 c 0,-13.33402 0.9461,-27.45012 -8.197,-38.3748 -14.6687,-17.52715 -45.8843,-15.77477 -66.043,-12.01829 -5.0713,0.94504 -17.9247,2.20786 -21.1022,6.6484 -1.1972,1.67305 -0.6578,4.68801 -0.6578,6.62469 v 16.64 m 500.4801,65.92 c -22.3975,5.13473 -62.6221,15.30824 -72.4805,-14.72 -1.3031,-3.9693 -1.7567,-8.00797 -1.7595,-12.16 h 80 c 3.4915,-18.80699 0.5271,-42.87867 -13.4972,-56.90273 -19.855,-19.85457 -57.2536,-18.51036 -77.3735,0.0519 -10.7522,9.91973 -16.6287,25.30887 -18.3862,39.57086 -3.071,24.91996 2.6353,53.87883 26.6969,66.63063 17.5892,9.32171 39.2911,7.85289 58.24,4.67406 4.1937,-0.70352 15.1973,-0.96586 17.9021,-4.55457 1.2168,-1.61418 0.6579,-4.69731 0.6579,-6.59012 v -16 m 69.12,-78.08 h -0.64 l -1.28,-17.28 h -26.24 v 122.24 h 30.08 v -55.04 c 0,-6.55168 -1.985,-17.04891 0.8182,-23.04 5.7127,-12.20891 29.2611,-34.0607 39.8752,-14.72 2.9827,5.43484 2.8266,11.92457 2.8266,17.92 h 29.44 c 0,-14.03332 -0.9703,-29.71918 -11.5457,-40.29434 -16.9832,-16.98293 -52.4522,-11.10179 -63.3343,10.21434 M 147.84,353.28 l 27.70618,39.04 15.81383,21.12 v 0.64 c -9.51688,8.45332 -16.59293,21.80086 -24.23902,32 -6.8307,9.11152 -16.76404,18.94434 -21.20099,29.44 h 23.68001 L 180.36198,475.13383 188.81629,464 208.64001,434.56 h 0.64 l 19.62666,29.44 8.59308,11.13383 11.46026,0.38617 h 24.32 c -9.5691,-15.50363 -21.29651,-29.98816 -31.91012,-44.8 -2.79059,-3.89441 -11.63818,-12.35934 -11.34963,-17.28 0.29973,-5.11121 7.98018,-12.48547 10.83803,-16.64 9.65375,-14.03395 22.58217,-28.13207 29.86172,-43.52 h -21.76 l -10.18026,0.38617 -8.1664,10.49383 -19.41334,29.44 -19.62666,-28.8 -8.64446,-11.13383 L 172.16001,353.28 H 147.84 m 557.44002,0 v 23.04 h 34.56 v 76.16 h -39.04 v 23.04 h 104.32001 v -23.04 h -35.2 v -99.2 h -64.64001 m 1019.52008,47.36 h -50.56 c 0.1734,-20.95594 26.24,-39.51813 43.3273,-21.64891 5.5177,5.77008 7.2275,13.94075 7.2327,21.64891 m -1246.08008,0.8232 c 8.20211,-1.00734 18.25375,0.39176 24.02074,6.91657 13.12098,14.84511 4.0559,41.98136 -15.70074,44.55503 -19.2004,2.50122 -27.92762,-11.70449 -30.34915,-28.6148 -0.52757,-3.68414 -2.44183,-11.83594 -0.35308,-15.11012 3.36781,-5.2791 16.68289,-7.04672 22.38223,-7.74668 m -137.60001,6.5516 c 4.22762,-0.61707 9.99027,4.01786 13.44,6.07411 13.18426,7.85859 25.34516,28.04363 6.4,37.76296 -3.21387,1.64879 -6.69117,2.40563 -10.24,2.91407 -9.83717,1.40933 -23.54715,-0.19637 -29.35457,-9.32645 -8.28184,-13.02019 5.37377,-35.32566 19.75457,-37.42469 M 1313.92,421.76 c 0,5.05418 1.6731,13.70773 -1.4834,17.92 -3.1055,4.14422 -7.6938,7.58387 -11.9566,10.45035 -7.1432,4.80344 -17.0975,7.23645 -24.96,2.35309 -10.9703,-6.8136 -7.2027,-22.56371 3.2,-27.63801 3.8939,-1.89938 8.5023,-2.73356 12.8,-3.02816 7.4018,-0.50739 14.9806,-0.0573 22.4,-0.0573 z"
       id="path6" /><path
       style="fill:#8363af;stroke:none"
       d="m 2049.9201,137.8716 c -30.7294,4.08438 -54.736,26.95645 -56.9028,58.6084 -2.2552,32.94141 -0.057,66.81277 -0.057,99.84 v 202.88 65.28 c 0,19.55898 -0.4611,38.32562 11.4622,55.04 25.2675,35.42055 74.2454,26.24 112.0578,26.24 h 215.04 69.12 c 13.0683,0 26.7498,1.16137 39.68,-0.92051 24.6765,-3.97312 44.854,-23.43488 50.2878,-47.71949 2.7791,-12.42031 1.5522,-25.75145 1.5522,-38.4 v -281.6 -57.6 c 0,-20.7784 0.3144,-40.17621 -12.8839,-57.6 -25.5142,-33.68266 -74.9577,-24.32 -111.9161,-24.32 h -212.48 -69.12 c -11.703,0 -24.2394,-1.27027 -35.84,0.2716 z"
       id="path4" /><path
       style="fill:#ffffff;fill-opacity:1;stroke:none"
       d="m 2196.4801,263.04 v 91.52 h -60.8 l 25.6,26.24 54.4,53.76 19.2,19.2 7.68,6.26766 7.68,-6.26766 19.2,-19.2 54.4,-53.76 25.6,-26.24 h -60.8 v -91.52 h -92.16 m -61.44,228.48 v 30.08 h 215.04 v -30.08 z"
       id="path5" /></g></svg>
