<?xml version="1.0" encoding="UTF-8" standalone="no"?>
<!-- Created with Inkscape (http://www.inkscape.org/) -->

<svg
   version="1.1"
   id="svg1"
   width="2627.8401"
   height="784"
   viewBox="0 0 2627.8401 784"
   xml:space="preserve"
   xmlns="http://www.w3.org/2000/svg"
   xmlns:svg="http://www.w3.org/2000/svg"><defs
     id="defs1" /><g
     id="g1"><path
       style="fill:#000000;stroke:none;stroke-width:0.969715"
       d="m 2487.4771,764.52123 c 13.9165,-1.76093 27.2629,-3.50014 40.4581,-8.54551 37.5488,-14.35748 65.9338,-44.42245 78.1698,-81.37062 7.8148,-23.59781 5.907,-48.69225 5.907,-73.11464 V 489.99063 256.02376 178.6441 c 0,-12.82973 1.1534,-26.22551 -0.1073,-38.99448 -4.7456,-48.062936 -31.6505,-88.864536 -77.648,-109.805476 -27.1656,-12.36755 -56.0799,-11.443 -85.3411,-11.443 H 2340.8168 1919.1683 651.69426 281.88266 181.36976 c -27.4428,0 -54.1622,-0.98072 -80.284,8.56911 -49.243903,18.00293 -81.109203,63.42232 -84.652403,113.288656 -2.4139,33.97272 -0.056,68.90829 -0.056,102.9698 v 208.98601 131.60637 c 0,24.6692 -2.3144,50.55665 1.9478,74.94251 8.5721,49.04595 47.6036,89.28519 97.300703,101.91298 30.3953,7.72329 64.2832,4.10325 95.4556,4.10325 h 168.7854 549.9763 1046.85144 342.6289 111.8917 c 18.3231,0 38.1032,2.03917 56.2619,-0.2586 z"
       id="path1" /><path
       style="fill:#8363af;stroke:none;stroke-width:0.975471"
       d="m 135.53066,16.644977 c -13.97368,1.774602 -27.37492,3.527317 -40.624278,8.611869 -37.722245,14.476238 -66.187254,44.751718 -78.491103,82.002454 -7.8572691,23.78839 -5.93123,49.06027 -5.93123,73.68238 v 112.36564 235.7836 77.98054 c 0,12.92934 -1.1581909,26.42916 0.107752,39.29726 4.766579,48.45158 31.756969,89.54376 77.967035,110.65811 27.277314,12.46358 56.310314,11.53184 85.691834,11.53184 h 108.543 423.38116 1272.68237 371.3314 100.9259 c 27.5556,0 54.3848,0.98835 80.6139,-8.63563 49.4664,-18.15007 81.4412,-63.89674 85.0002,-114.16833 2.4669,-34.84406 0.058,-70.67627 0.058,-105.61142 v -213.6789 -129.5582 c 0,-24.64676 2.3707,-50.57906 -2.1737,-74.91042 -9.276,-49.66312 -48.6607,-89.070348 -98.7531,-101.832546 -29.9462,-7.629601 -63.8694,-3.77886 -94.5783,-3.77886 H 2251.1669 1698.2959 647.14267 303.74056 192.0238 c -18.39839,0 -38.25982,-2.055003 -56.49314,0.260613 m 1.26949,42.896092 c 17.70683,-2.022247 36.75118,-0.175316 54.58889,-0.175316 h 109.17775 332.61129 1015.60692 578.896 181.5397 55.2237 c 13.2193,0 26.3827,-0.634482 39.3547,2.241937 9.1379,2.026221 18.0817,5.39486 26.0249,10.235064 7.1015,4.327295 13.1788,9.348137 19.0333,15.153892 28.5932,28.354944 23.4954,68.169174 23.4954,104.383374 v 384.99043 c 0,45.65596 8.5523,98.06555 -33.0072,130.2902 -6.3427,4.91785 -13.4314,9.13871 -20.947,12.1553 -21.1813,8.50168 -43.5947,6.76134 -66.0144,6.76134 H 2350.8234 1983.3006 705.54006 289.77597 176.15495 c -23.37455,0 -47.33359,2.12223 -69.18824,-7.55773 C 99.46975,714.69897 92.250661,710.37909 86.019821,705.13699 45.018843,670.64207 54.916852,615.46527 54.916852,568.3882 V 182.78374 c 0,-17.79 -2.220249,-37.17765 1.689739,-54.64777 8.557841,-38.237046 40.69038,-64.083444 80.193559,-68.594901 z"
       id="path2" /><path
       style="fill:#ffffff;stroke:none;stroke-width:0.973433"
       d="m 1675.5492,295.917 c -23.6548,4.26661 -16.9667,41.09589 6.853,36.80103 23.7298,-4.2787 16.9513,-41.09459 -6.853,-36.80103 m -839.1773,4.07158 v 160.73328 c 19.2341,3.98054 37.4551,8.72946 57.3158,6.05404 14.0953,-1.89877 27.421,-7.9709 36.5631,-19.13937 17.7445,-21.67764 18.199,-62.04253 3.2524,-85.34823 -17.0151,-26.53104 -51.3585,-21.01668 -69.7194,0 l 1.246,-62.29972 h -28.6579 m 137.0594,0 v 22.4279 h 33.6418 v 120.86146 h -38.0028 v 22.4279 h 101.5485 v -22.4279 H 1036.354 V 299.98858 h -62.9227 m -349.50144,8.72196 -19.31291,5.21471 -8.34605,2.71459 -0.99891,8.26863 v 21.8049 h -31.77286 v 22.4279 h 31.77286 c 0,20.38715 -1.41425,41.39415 0.51725,61.67673 0.94894,9.96476 2.2303,20.05451 10.09822,27.29696 9.91058,9.12274 24.61118,10.10333 37.35531,10.08287 9.41538,-0.0151 18.82616,-1.95215 28.03488,-3.73799 v -23.05089 c -11.27,2.32495 -28.04944,7.77643 -38.62583,0.71433 -7.58951,-5.06771 -8.09896,-14.22878 -8.09896,-22.51923 v -50.46278 h 46.72479 v -22.4279 h -46.72479 v -25.54288 l -0.623,-12.45995 m -420.52313,55.44675 h -0.62299 l -0.623,-17.44392 h -24.9199 v 165.71726 h 28.65788 v -46.72479 c 19.78811,2.55548 39.82045,2.76904 56.69275,-9.81845 19.37358,-14.45357 22.87993,-39.41605 21.23719,-61.82623 -0.92687,-12.64436 -4.26997,-26.2819 -12.70222,-36.13384 -16.43558,-19.20276 -55.97564,-18.98951 -67.71971,6.22997 m 150.14233,-19.67152 c -14.97041,1.98979 -28.4713,7.10652 -38.42296,19.04853 -19.80988,23.77191 -19.41838,71.92739 4.78111,92.63957 13.28216,11.36815 32.46521,13.59917 49.21678,11.22309 46.96161,-6.66118 63.4318,-74.23596 32.91072,-107.59153 -11.60523,-12.68302 -31.82629,-17.53392 -48.48565,-15.31966 m 120.23846,19.04853 h -0.62299 l -1.246,-16.82093 h -25.54288 v 118.99247 h 29.28087 v -53.57776 c 0,-6.37758 -1.9323,-16.59601 0.79655,-22.4279 5.56111,-11.8849 28.48321,-33.15536 38.81568,-14.32894 2.90345,5.29035 2.75159,11.60777 2.75159,17.44393 h 28.65787 c 0,-13.66066 -0.94461,-28.92952 -11.23894,-39.22385 -16.53148,-16.53148 -51.05934,-10.80716 -61.65175,9.94298 m 236.73898,11.83694 c 14.1669,-4.8224 27.1265,-9.52375 42.3638,-9.34256 8.5471,0.10164 17.8279,3.34108 21.2256,11.83455 1.8617,4.65381 1.2023,10.04192 1.2023,14.95194 -20.3731,0 -44.0934,-1.40688 -61.0513,12.11912 -20.58545,16.41938 -15.52619,52.68449 9.9655,61.17343 13.4431,4.47665 29.679,2.14536 41.7408,-5.04504 4.8697,-2.90296 8.5152,-7.09116 13.083,-10.30877 l 0.623,14.95193 h 24.2969 v -70.39869 c 0,-12.9797 0.9209,-26.72093 -7.9793,-37.3553 -14.2792,-17.06147 -44.6652,-15.35568 -64.2884,-11.699 -4.9366,0.91989 -17.4486,2.1492 -20.5417,6.47177 -1.1653,1.62864 -0.6402,4.56347 -0.6402,6.4487 v 16.19792 m 487.1837,64.16872 c -21.8028,4.99842 -60.9577,14.9014 -70.5548,-14.32894 -1.2686,-3.86365 -1.7101,-7.79541 -1.7128,-11.83695 h 41.1178 26.1659 c 2.5322,0 8.0569,1.03583 10.1285,-0.64029 2.8083,-2.27213 1.0854,-12.81034 1.0854,-16.18063 0,-18.82921 -7.1598,-37.65483 -24.9199,-46.55653 -5.9756,-2.99513 -12.1264,-4.38578 -18.6899,-5.32096 -16.3547,-2.33035 -34.9494,2.4761 -46.669,14.52219 -20.7882,21.36727 -23.7179,62.50151 -7.4827,87.19508 14.773,22.46942 43.3299,23.22071 67.2346,20.52765 5.8542,-0.6595 11.6797,-1.8899 17.444,-3.08563 1.881,-0.39021 4.9605,-0.64358 6.2127,-2.30502 1.1842,-1.57107 0.6402,-4.57274 0.6402,-6.41504 v -15.57493 m 588.1095,-75.38267 h -0.623 l -0.623,-17.44392 h -24.9199 v 165.71726 h 28.6579 v -46.72479 c 19.788,2.55548 39.8203,2.76904 56.6927,-9.81845 19.3739,-14.45384 22.8795,-39.4159 21.2371,-61.82623 -0.9266,-12.6444 -4.27,-26.28186 -12.7022,-36.13384 -16.4355,-19.20283 -55.9756,-18.98951 -67.7196,6.22997 M 1499.241,346.71337 v 24.29689 h 56.0697 l -41.6687,54.20076 -15.8168,21.18191 -0.4532,19.31291 h 97.1876 v -24.91989 h -57.9388 c 13.327,-16.79001 26.3039,-33.93977 39.17,-51.08577 5.1691,-6.88856 14.1675,-14.92516 17.0694,-23.0509 1.9959,-5.5886 0.4534,-14.02481 0.4534,-19.93591 h -94.0726 m 133.3214,0 v 22.4279 h 33.6418 v 74.13667 h -38.0028 v 22.4279 H 1729.75 v -22.4279 h -34.2649 v -96.56457 h -62.9227 m -457.2801,46.1018 h -49.2167 c 0.1687,-20.38377 25.5404,-38.4705 42.1764,-21.07377 5.371,5.61671 7.0355,13.57045 7.0403,21.07377 M 205.89872,442.65494 V 407.7671 c 0,-5.23376 -1.48827,-13.21029 0.58406,-18.06692 5.85217,-13.71491 27.44845,-29.9468 40.41839,-15.56531 5.20199,5.76812 6.47721,14.34102 7.02362,21.79528 1.14613,15.63551 0.29358,35.32254 -14.38422,44.91732 -10.29237,6.72802 -22.43549,4.11926 -33.64185,1.80747 m 659.13108,0 V 407.7671 c 0,-5.23362 -1.4883,-13.21044 0.5841,-18.06692 5.8523,-13.71488 27.4483,-29.9468 40.4183,-15.56531 5.2021,5.7682 6.4772,14.34095 7.0237,21.79528 1.1463,15.63543 0.2934,35.32262 -14.3843,44.91732 -10.2923,6.7281 -22.4355,4.11926 -33.6418,1.80747 m 923.2819,0 V 407.7671 c 0,-5.2338 -1.4882,-13.21021 0.5841,-18.06692 5.8517,-13.71503 27.4484,-29.94672 40.4184,-15.56531 5.2019,5.76812 6.4771,14.34106 7.0235,21.79528 1.1457,15.63562 0.2938,35.3224 -14.3842,44.91732 -10.2924,6.72802 -22.4355,4.11926 -33.6418,1.80747 M 355.41805,369.32155 c 27.82974,-3.61658 34.08917,26.35376 30.47637,47.79051 -2.10117,12.46732 -8.87509,24.04968 -22.3774,25.97887 -40.27684,5.75467 -44.55681,-69.03154 -8.09897,-73.76938 m 419.90015,44.05252 c 0,4.91927 1.6289,13.34448 -1.444,17.44393 -2.9888,3.98723 -7.5355,7.4084 -11.639,10.17271 -7.0725,4.76462 -17.328,7.2131 -24.9194,1.88295 -9.8243,-6.89799 -6.3212,-21.80802 3.7375,-26.44612 3.8778,-1.78804 8.2132,-2.7066 12.46,-2.99772 7.2051,-0.49391 14.5826,-0.0558 21.8049,-0.0558 m 634.2111,9.0114 c -28.9079,5.21231 -21.4372,50.73598 7.476,45.52302 29.2562,-5.27486 21.6769,-50.77952 -7.476,-45.52302 z"
       id="path8" /><path
       style="fill:#8363af;stroke:none"
       d="m 2049.9201,137.8716 c -30.7294,4.08438 -54.736,26.95645 -56.9028,58.6084 -2.2552,32.94141 -0.057,66.81277 -0.057,99.84 v 202.88 65.28 c 0,19.55898 -0.4611,38.32562 11.4622,55.04 25.2675,35.42055 74.2454,26.24 112.0578,26.24 h 215.04 69.12 c 13.0683,0 26.7498,1.16137 39.68,-0.92051 24.6765,-3.97312 44.854,-23.43488 50.2878,-47.71949 2.7791,-12.42031 1.5522,-25.75145 1.5522,-38.4 v -281.6 -57.6 c 0,-20.7784 0.3144,-40.17621 -12.8839,-57.6 -25.5142,-33.68266 -74.9577,-24.32 -111.9161,-24.32 h -212.48 -69.12 c -11.703,0 -24.2394,-1.27027 -35.84,0.2716 z"
       id="path4" /><path
       style="fill:#ffffff;fill-opacity:1;stroke:none"
       d="m 2196.4801,263.04 v 91.52 h -60.8 l 25.6,26.24 54.4,53.76 19.2,19.2 7.68,6.26766 7.68,-6.26766 19.2,-19.2 54.4,-53.76 25.6,-26.24 h -60.8 v -91.52 h -92.16 m -61.44,228.48 v 30.08 h 215.04 v -30.08 z"
       id="path5" /></g></svg>
