<?xml version="1.0" encoding="UTF-8" standalone="no"?>
<!-- Created with Inkscape (http://www.inkscape.org/) -->

<svg
   version="1.1"
   id="svg1"
   width="2627.8401"
   height="784"
   viewBox="0 0 2627.8401 784"
   xml:space="preserve"
   xmlns="http://www.w3.org/2000/svg"
   xmlns:svg="http://www.w3.org/2000/svg"><defs
     id="defs1" /><g
     id="g1"><path
       style="display:inline;fill:#000000;stroke:none;stroke-width:0.969715"
       d="m 2487.4771,764.52123 c 13.9165,-1.76093 27.2629,-3.50014 40.4581,-8.54551 37.5488,-14.35748 65.9338,-44.42245 78.1698,-81.37062 7.8148,-23.59781 5.907,-48.69225 5.907,-73.11464 V 489.99063 256.02376 178.6441 c 0,-12.82973 1.1534,-26.22551 -0.1073,-38.99448 -4.7456,-48.062936 -31.6505,-88.864536 -77.648,-109.805476 -27.1656,-12.36755 -56.0799,-11.443 -85.3411,-11.443 H 2340.8168 1919.1683 651.69426 281.88266 181.36976 c -27.4428,0 -54.1622,-0.98072 -80.284,8.56911 -49.243903,18.00293 -81.109203,63.42232 -84.652403,113.288656 -2.4139,33.97272 -0.056,68.90829 -0.056,102.9698 v 208.98601 131.60637 c 0,24.6692 -2.3144,50.55665 1.9478,74.94251 8.5721,49.04595 47.6036,89.28519 97.300703,101.91298 30.3953,7.72329 64.2832,4.10325 95.4556,4.10325 h 168.7854 549.9763 1046.85144 342.6289 111.8917 c 18.3231,0 38.1032,2.03917 56.2619,-0.2586 z"
       id="path1" /><path
       style="display:inline;fill:#8363af;stroke:none;stroke-width:0.975471"
       d="m 135.53066,16.644977 c -13.97368,1.774602 -27.37492,3.527317 -40.624278,8.611869 -37.722245,14.476238 -66.187254,44.751718 -78.491103,82.002454 -7.8572691,23.78839 -5.93123,49.06027 -5.93123,73.68238 v 112.36564 235.7836 77.98054 c 0,12.92934 -1.1581909,26.42916 0.107752,39.29726 4.766579,48.45158 31.756969,89.54376 77.967035,110.65811 27.277314,12.46358 56.310314,11.53184 85.691834,11.53184 h 108.543 423.38116 1272.68237 371.3314 100.9259 c 27.5556,0 54.3848,0.98835 80.6139,-8.63563 49.4664,-18.15007 81.4412,-63.89674 85.0002,-114.16833 2.4669,-34.84406 0.058,-70.67627 0.058,-105.61142 v -213.6789 -129.5582 c 0,-24.64676 2.3707,-50.57906 -2.1737,-74.91042 -9.276,-49.66312 -48.6607,-89.070348 -98.7531,-101.832546 -29.9462,-7.629601 -63.8694,-3.77886 -94.5783,-3.77886 H 2251.1669 1698.2959 647.14267 303.74056 192.0238 c -18.39839,0 -38.25982,-2.055003 -56.49314,0.260613 m 1.26949,42.896092 c 17.70683,-2.022247 36.75118,-0.175316 54.58889,-0.175316 h 109.17775 332.61129 1015.60692 578.896 181.5397 55.2237 c 13.2193,0 26.3827,-0.634482 39.3547,2.241937 9.1379,2.026221 18.0817,5.39486 26.0249,10.235064 7.1015,4.327295 13.1788,9.348137 19.0333,15.153892 28.5932,28.354944 23.4954,68.169174 23.4954,104.383374 v 384.99043 c 0,45.65596 8.5523,98.06555 -33.0072,130.2902 -6.3427,4.91785 -13.4314,9.13871 -20.947,12.1553 -21.1813,8.50168 -43.5947,6.76134 -66.0144,6.76134 H 2350.8234 1983.3006 705.54006 289.77597 176.15495 c -23.37455,0 -47.33359,2.12223 -69.18824,-7.55773 C 99.46975,714.69897 92.250661,710.37909 86.019821,705.13699 45.018843,670.64207 54.916852,615.46527 54.916852,568.3882 V 182.78374 c 0,-17.79 -2.220249,-37.17765 1.689739,-54.64777 8.557841,-38.237046 40.69038,-64.083444 80.193559,-68.594901 z"
       id="path2" /><path
       style="fill:#ffffff"
       d="m 1429.6,438.4 v -85.12 h 12.8 12.8 v 4.32 c 0,2.376 0.1892,6.27539 0.4149,8.6653 l 0.4104,4.3453 4.8651,-5.01282 c 2.6758,-2.75705 6.2511,-5.96267 7.9451,-7.12359 12.8162,-8.78305 30.5762,-10.18978 44.4877,-3.52377 6.7413,3.23027 14.1468,10.63807 17.8703,17.87573 5.1558,10.02183 7.5938,20.2127 8.2618,34.53385 0.7251,15.54491 -1.4804,27.58153 -7.1533,39.04 -8.4911,17.1509 -22.686,26.97375 -43.431,30.05408 -9.7029,1.44075 -17.5282,1.26387 -27.4356,-0.62014 l -2.4,-0.45639 V 499.44877 523.52 h -14.72 -14.72 z m 60.2763,13.31937 c 8.8352,-4.19581 14.8568,-12.58933 17.5905,-24.51937 1.39,-6.06584 1.5626,-23.1998 0.2967,-29.44 -1.3962,-6.88198 -3.8817,-12.89235 -6.6162,-15.99886 -3.9074,-4.43909 -6.8384,-5.73676 -12.9873,-5.75006 -4.381,-0.009 -5.6742,0.26042 -8.96,1.87004 -4.2065,2.06066 -11.9455,9.35399 -17.147,16.15943 l -3.0271,3.96056 0.1671,26.69517 0.167,26.69517 2.493,0.86296 c 4.0982,1.41863 9.9173,2.07501 16.7881,1.89369 5.9073,-0.15589 6.902,-0.37093 11.2352,-2.42873 z M 1565.28,438.4 v -85.12 h 12.8 12.8 v 4.32 c 0,2.376 0.1892,6.27539 0.4149,8.6653 l 0.4104,4.3453 4.8651,-5.01282 c 2.6758,-2.75705 6.2511,-5.96267 7.9451,-7.12359 12.8162,-8.78305 30.5762,-10.18978 44.4877,-3.52377 6.7413,3.23027 14.1468,10.63807 17.8703,17.87573 5.1558,10.02183 7.5938,20.2127 8.2618,34.53385 0.7251,15.54491 -1.4804,27.58153 -7.1533,39.04 -8.4911,17.1509 -22.686,26.97375 -43.431,30.05408 -9.7029,1.44075 -17.5282,1.26387 -27.4356,-0.62014 l -2.4,-0.45639 V 499.44877 523.52 H 1580 1565.28 Z m 60.2763,13.31937 c 8.8352,-4.19581 14.8568,-12.58933 17.5905,-24.51937 1.39,-6.06584 1.5626,-23.1998 0.2967,-29.44 -1.3962,-6.88198 -3.8817,-12.89235 -6.6162,-15.99886 -3.9074,-4.43909 -6.8384,-5.73676 -12.9873,-5.75006 -4.381,-0.009 -5.6742,0.26042 -8.96,1.87004 -4.2065,2.06066 -11.9455,9.35399 -17.147,16.15943 l -3.0271,3.96056 0.1671,26.69517 0.167,26.69517 2.493,0.86296 c 4.0982,1.41863 9.9173,2.07501 16.7881,1.89369 5.9073,-0.15589 6.902,-0.37093 11.2352,-2.42873 z m -951.79628,25.43225 c -10.17409,-1.67314 -19.01416,-5.83784 -23.84048,-11.23162 -1.41735,-1.584 -3.54677,-4.90426 -4.73205,-7.37836 -4.11625,-8.59206 -4.22507,-9.73983 -4.53394,-47.82164 l -0.27902,-34.4 H 624.10727 607.84001 V 364.8 353.28 h 16.32 16.32 v -15.58379 -15.5838 l 14.11357,-3.64917 c 7.76246,-2.00705 14.53046,-3.80915 15.04,-4.00468 0.79615,-0.30551 0.92644,2.39935 0.92644,19.23297 V 353.28 h 24 24 v 11.52 11.52 h -24.03831 -24.0383 l 0.22753,31.52 c 0.26175,36.26153 0.24522,36.1371 5.49937,41.39125 4.03684,4.03684 7.06574,4.85953 17.70971,4.81017 7.44493,-0.0345 19.67267,-1.71222 23.67606,-3.24847 0.8372,-0.32126 0.96394,1.18878 0.96394,11.48554 v 11.85544 l -3.36,0.72672 c -13.04377,2.82115 -31.88285,3.86265 -41.44,2.29097 z m 123.10309,0.29896 c -29.17074,-4.14336 -45.4477,-21.827 -48.32015,-52.49604 -2.3576,-25.17202 6.04706,-49.55129 21.41473,-62.11737 5.08824,-4.16063 15.33831,-9.14036 21.88233,-10.63094 7.52217,-1.71339 23.06076,-1.53045 30.04545,0.35373 18.06801,4.874 30.08447,16.9276 35.04473,35.15302 1.08802,3.99769 1.39572,7.3741 1.63132,17.90075 0.15971,7.13554 0.11122,13.68754 -0.10776,14.56 l -0.39812,1.58627 h -39.98781 -39.98781 v 2.59366 c 0,4.39996 1.88904,11.18682 4.20475,15.10662 5.74508,9.72473 16.30062,14.90019 30.44744,14.92861 10.15093,0.0204 27.32178,-2.27971 36.02397,-4.82555 1.73589,-0.50784 3.24789,-0.92334 3.36,-0.92334 0.11211,0 0.20384,5.17595 0.20384,11.50212 v 11.50212 l -3.36,0.94729 c -14.33097,4.04034 -40.60684,6.49108 -52.09691,4.85905 z m 32.18584,-81.27453 c -0.73949,-7.95662 -4.48303,-15.47206 -9.57502,-19.22258 -6.43916,-4.74279 -17.50982,-5.77875 -25.01853,-2.34115 -4.62113,2.11562 -9.32493,6.57907 -11.75676,11.156 -2.02126,3.8042 -3.97862,10.30019 -3.97862,13.20406 V 400.64 h 25.3719 25.37191 z m 374.87595,81.29664 c -6.1477,-1.46768 -12.4643,-6.70012 -15.4656,-12.81136 -1.5571,-3.17035 -1.7393,-4.2453 -1.7393,-10.26133 0,-6.01603 0.1822,-7.09098 1.7393,-10.26133 5.0224,-10.22651 16.5231,-15.52763 27.0942,-12.48884 7.396,2.12609 12.0944,6.24999 15.4662,13.5752 1.4379,3.12369 1.7193,4.6253 1.7193,9.17497 0,4.54967 -0.2814,6.05128 -1.7193,9.17497 -0.9455,2.05424 -2.5887,4.83276 -3.6513,6.17451 -4.9689,6.27371 -15.2826,9.67146 -23.4435,7.72321 z m 116.7198,-0.0108 c -14.8633,-2.71487 -25.1479,-12.14406 -28.362,-26.00277 -1.3653,-5.88709 -1.3504,-15.73287 0.031,-20.51843 3.5052,-12.14258 12.8166,-20.85522 27.529,-25.75863 9.4664,-3.15498 15.7816,-4.0125 32.2237,-4.37556 l 14.9465,-0.33003 -0.2551,-7.11822 c -0.2026,-5.65295 -0.5324,-7.64692 -1.6022,-9.68661 -4.1242,-7.86375 -12.266,-11.01435 -26.7557,-10.35348 -11.3671,0.51845 -24.7027,3.65218 -35.68,8.38442 l -2.4,1.03463 V 370.9346 359.132 l 3.5895,-1.34298 c 10.2767,-3.84503 23.3489,-6.32717 36.0905,-6.85288 27.2298,-1.12349 45.0476,5.87999 52.1351,20.49231 4.1221,8.49839 4.1849,9.38825 4.1849,59.2646 V 475.52 h -12.3888 -12.3888 l -0.4112,-3.93388 c -0.2261,-2.16364 -0.4112,-5.61964 -0.4112,-7.68 0,-2.06037 -0.2295,-3.74612 -0.5101,-3.74612 -0.2805,0 -1.6485,1.17909 -3.04,2.6202 -5.7202,5.92445 -15.0222,11.31596 -23.238,13.46896 -5.5029,1.44207 -18.3646,2.11186 -23.2872,1.2127 z m 25.3763,-23.62704 c 4.4801,-1.57463 9.7983,-5.23173 15.915,-10.94407 l 4.944,-4.61719 V 430.01678 421.76 l -11.68,0.0111 c -12.8988,0.0123 -18.4193,0.82878 -23.9723,3.54561 -3.9278,1.92171 -7.3574,5.65638 -8.4049,9.15268 -0.9283,3.09841 -0.9613,9.02758 -0.063,11.40894 0.8258,2.19043 4.1315,5.74125 6.4999,6.98194 4.4604,2.33654 11.6906,2.75691 16.7618,0.97454 z M 346.72,464 v -11.52 h 19.52001 19.52 V 414.4 376.32 h -17.28 H 351.2 V 364.8 353.28 h 32.32001 32.32 v 49.6 49.6 h 17.6 17.6 V 464 475.52 h -52.16 H 346.72 Z m 135.04001,-49.6 v -61.12 h 12.8 12.8 l 0.005,4.32 c 0.002,2.376 0.18921,6.27539 0.41491,8.6653 l 0.41036,4.3453 4.86509,-5.01282 c 5.51774,-5.68529 9.25361,-8.4311 15.04204,-11.0557 11.90201,-5.39663 28.36817,-4.90424 38.71192,1.1576 6.99893,4.10165 12.80292,12.4228 15.5877,22.34801 1.37189,4.88956 1.40509,5.94402 1.61323,51.23231 l 0.21251,46.24 H 569.4961 554.76989 l -0.18494,-44 -0.18494,-44 -1.52081,-3.36466 c -2.7835,-6.15822 -7.7954,-8.97324 -14.71395,-8.26433 -7.03444,0.72078 -13.45675,5.37156 -22.09137,15.99769 l -4.87387,5.99799 V 436.70335 475.52 h -14.72 -14.72 z M 888.80002,464 v -11.52 h 19.52 19.52 V 390.4 328.32 h -17.28 -17.28 V 316.8 305.28 h 32.32 32.32001 v 73.6 73.6 h 17.6 17.6 V 464 475.52 h -52.16001 -52.16 z M 392.80001,338.19472 c -4.85353,-1.54391 -8.58583,-4.7976 -10.90336,-9.50516 -1.92951,-3.9194 -2.0404,-4.51367 -1.76814,-9.47561 0.43456,-7.9194 3.8839,-13.29094 10.68759,-16.64338 4.04637,-1.99379 11.87227,-2.03382 16.12112,-0.0825 6.71161,3.08245 10.93573,9.87941 10.93573,17.59651 0,13.18261 -12.40218,22.14066 -25.07294,18.1101 z"
       id="path6" /><path
       style="fill:#8363af;stroke:none"
       d="m 2049.9201,137.8716 c -30.7294,4.08438 -54.736,26.95645 -56.9028,58.6084 -2.2552,32.94141 -0.057,66.81277 -0.057,99.84 v 202.88 65.28 c 0,19.55898 -0.4611,38.32562 11.4622,55.04 25.2675,35.42055 74.2454,26.24 112.0578,26.24 h 215.04 69.12 c 13.0683,0 26.7498,1.16137 39.68,-0.92051 24.6765,-3.97312 44.854,-23.43488 50.2878,-47.71949 2.7791,-12.42031 1.5522,-25.75145 1.5522,-38.4 v -281.6 -57.6 c 0,-20.7784 0.3144,-40.17621 -12.8839,-57.6 -25.5142,-33.68266 -74.9577,-24.32 -111.9161,-24.32 h -212.48 -69.12 c -11.703,0 -24.2394,-1.27027 -35.84,0.2716 z"
       id="path4" /><path
       style="display:inline;fill:#ffffff;fill-opacity:1;stroke:none"
       d="m 2196.4801,263.04 v 91.52 h -60.8 l 25.6,26.24 54.4,53.76 19.2,19.2 7.68,6.26766 7.68,-6.26766 19.2,-19.2 54.4,-53.76 25.6,-26.24 h -60.8 v -91.52 h -92.16 m -61.44,228.48 v 30.08 h 215.04 v -30.08 z"
       id="path5" /></g></svg>
