<?xml version="1.0" encoding="UTF-8" standalone="no"?>
<!-- Created with Inkscape (http://www.inkscape.org/) -->

<svg
   version="1.1"
   id="svg1"
   width="2627.8401"
   height="784"
   viewBox="0 0 2627.8401 784"
   xml:space="preserve"
   xmlns="http://www.w3.org/2000/svg"
   xmlns:svg="http://www.w3.org/2000/svg"><defs
     id="defs1" /><g
     id="g1"><path
       style="fill:#000000;stroke:none;stroke-width:0.969715"
       d="m 2487.4771,764.52123 c 13.9165,-1.76093 27.2629,-3.50014 40.4581,-8.54551 37.5488,-14.35748 65.9338,-44.42245 78.1698,-81.37062 7.8148,-23.59781 5.907,-48.69225 5.907,-73.11464 V 489.99063 256.02376 178.6441 c 0,-12.82973 1.1534,-26.22551 -0.1073,-38.99448 -4.7456,-48.062936 -31.6505,-88.864536 -77.648,-109.805476 -27.1656,-12.36755 -56.0799,-11.443 -85.3411,-11.443 H 2340.8168 1919.1683 651.69426 281.88266 181.36976 c -27.4428,0 -54.1622,-0.98072 -80.284,8.56911 -49.243903,18.00293 -81.109203,63.42232 -84.652403,113.288656 -2.4139,33.97272 -0.056,68.90829 -0.056,102.9698 v 208.98601 131.60637 c 0,24.6692 -2.3144,50.55665 1.9478,74.94251 8.5721,49.04595 47.6036,89.28519 97.300703,101.91298 30.3953,7.72329 64.2832,4.10325 95.4556,4.10325 h 168.7854 549.9763 1046.85144 342.6289 111.8917 c 18.3231,0 38.1032,2.03917 56.2619,-0.2586 z"
       id="path1" /><path
       style="fill:#8363af;stroke:none;stroke-width:0.975471"
       d="m 135.53066,16.644977 c -13.97368,1.774602 -27.37492,3.527317 -40.624278,8.611869 -37.722245,14.476238 -66.187254,44.751718 -78.491103,82.002454 -7.8572691,23.78839 -5.93123,49.06027 -5.93123,73.68238 v 112.36564 235.7836 77.98054 c 0,12.92934 -1.1581909,26.42916 0.107752,39.29726 4.766579,48.45158 31.756969,89.54376 77.967035,110.65811 27.277314,12.46358 56.310314,11.53184 85.691834,11.53184 h 108.543 423.38116 1272.68237 371.3314 100.9259 c 27.5556,0 54.3848,0.98835 80.6139,-8.63563 49.4664,-18.15007 81.4412,-63.89674 85.0002,-114.16833 2.4669,-34.84406 0.058,-70.67627 0.058,-105.61142 v -213.6789 -129.5582 c 0,-24.64676 2.3707,-50.57906 -2.1737,-74.91042 -9.276,-49.66312 -48.6607,-89.070348 -98.7531,-101.832546 -29.9462,-7.629601 -63.8694,-3.77886 -94.5783,-3.77886 H 2251.1669 1698.2959 647.14267 303.74056 192.0238 c -18.39839,0 -38.25982,-2.055003 -56.49314,0.260613 m 1.26949,42.896092 c 17.70683,-2.022247 36.75118,-0.175316 54.58889,-0.175316 h 109.17775 332.61129 1015.60692 578.896 181.5397 55.2237 c 13.2193,0 26.3827,-0.634482 39.3547,2.241937 9.1379,2.026221 18.0817,5.39486 26.0249,10.235064 7.1015,4.327295 13.1788,9.348137 19.0333,15.153892 28.5932,28.354944 23.4954,68.169174 23.4954,104.383374 v 384.99043 c 0,45.65596 8.5523,98.06555 -33.0072,130.2902 -6.3427,4.91785 -13.4314,9.13871 -20.947,12.1553 -21.1813,8.50168 -43.5947,6.76134 -66.0144,6.76134 H 2350.8234 1983.3006 705.54006 289.77597 176.15495 c -23.37455,0 -47.33359,2.12223 -69.18824,-7.55773 C 99.46975,714.69897 92.250661,710.37909 86.019821,705.13699 45.018843,670.64207 54.916852,615.46527 54.916852,568.3882 V 182.78374 c 0,-17.79 -2.220249,-37.17765 1.689739,-54.64777 8.557841,-38.237046 40.69038,-64.083444 80.193559,-68.594901 z"
       id="path2" /><path
       style="display:inline;fill:#ffffff;stroke-width:0.862409"
       d="m 867.3263,432.6978 v -73.40822 h 11.0388 11.0388 v 3.72561 c 0,2.04908 0.1632,5.41196 0.3578,7.47303 l 0.354,3.74743 4.1956,-4.32311 c 2.3076,-2.3777 5.3911,-5.14225 6.852,-6.14344 11.0529,-7.57457 26.3692,-8.78775 38.3666,-3.03893 5.8138,2.78581 12.2003,9.17436 15.4115,15.41618 4.4464,8.64291 6.549,17.43161 7.1251,29.7823 0.6251,13.40605 -1.2768,23.78654 -6.1692,33.66842 -7.3227,14.79108 -19.5645,23.26239 -37.4552,25.9189 -8.3679,1.24251 -15.1165,1.08997 -23.6607,-0.53482 l -2.0698,-0.39359 v 20.75922 20.75924 H 880.017 867.3223 Z m 51.9828,11.48674 c 7.6196,-3.61851 12.8126,-10.85714 15.1702,-21.14572 1.1988,-5.23122 1.3476,-20.00771 0.2559,-25.38931 -1.2041,-5.93507 -3.3476,-11.11846 -5.7059,-13.79754 -3.3697,-3.82832 -5.8975,-4.94744 -11.2004,-4.95892 -3.7782,-0.008 -4.8934,0.2246 -7.7271,1.61275 -3.6277,1.77713 -10.3019,8.06696 -14.7878,13.93602 l -2.6106,3.41564 0.1441,23.02213 0.1441,23.02215 2.15,0.74422 c 3.5342,1.22344 8.5527,1.78951 14.4781,1.63313 5.0945,-0.13444 5.9524,-0.31989 9.6894,-2.09455 z m -730.45288,22.20054 c -12.81815,-2.34132 -21.68776,-10.47314 -24.45958,-22.42501 -1.17744,-5.07707 -1.1646,-13.56816 0.0267,-17.69527 3.02293,-10.47187 11.05323,-17.98572 23.74132,-22.21446 8.16383,-2.72089 13.61013,-3.46041 27.78998,-3.77353 l 12.88996,-0.28461 -0.22001,-6.13882 c -0.17473,-4.87515 -0.45916,-6.59476 -1.38172,-8.35381 -3.55675,-6.78176 -10.57833,-9.49887 -23.07433,-8.92893 -9.80313,0.44711 -21.30388,3.14967 -30.77074,7.23079 l -2.06978,0.89228 v -10.17867 -10.17868 l 3.09557,-1.15818 c 8.86275,-3.31599 20.13626,-5.4566 31.12481,-5.90998 23.4832,-0.96891 38.84939,5.07094 44.96177,17.67274 3.55489,7.32908 3.60908,8.0965 3.60908,51.11029 v 38.65918 H 243.43502 232.7508 l -0.3546,-3.39261 c -0.19503,-1.86595 -0.3546,-4.84642 -0.3546,-6.6233 0,-1.77689 -0.19796,-3.2307 -0.43993,-3.2307 -0.24196,0 -1.42172,1.01687 -2.62172,2.25969 -4.93318,5.1093 -12.95528,9.75899 -20.04068,11.61576 -4.74575,1.24364 -15.83781,1.82128 -20.08312,1.04583 z m 21.88475,-20.37616 c 3.86369,-1.35797 8.45015,-4.51189 13.72526,-9.43826 l 4.26379,-3.98189 v -7.12073 -7.12072 l -10.07294,0.01 c -11.12406,0.0106 -15.88502,0.71475 -20.67396,3.05778 -3.38741,1.65728 -6.34506,4.87809 -7.24845,7.89335 -0.80058,2.67208 -0.82904,7.78545 -0.0548,9.83915 0.7122,1.88905 3.56304,4.95132 5.60561,6.0213 3.84663,2.01503 10.08204,2.37758 14.45545,0.84045 z m 341.87602,20.35058 c -5.66358,-0.89635 -10.03972,-2.23163 -14.52377,-4.43155 -13.46844,-6.60774 -21.27312,-19.12344 -24.31601,-38.99345 -1.19564,-7.80746 -1.20961,-25.42029 -0.028,-35.21993 3.50215,-29.04383 15.33416,-45.76764 38.18732,-53.97546 9.32432,-3.34885 20.62583,-4.80631 37.2697,-4.80631 h 10.98035 v 10.76287 10.76286 h -11.74324 c -6.45878,0 -13.84789,0.25384 -16.42025,0.5641 -19.38879,2.33856 -29.52066,12.43077 -31.26832,31.14594 l -0.33845,3.62448 2.98062,-1.31817 c 14.52926,-6.42552 35.63489,-6.18311 48.64227,0.55871 5.40012,2.79892 12.22154,9.58594 14.62149,14.54772 3.36981,6.96691 4.26353,11.40739 4.27681,21.24975 0.0136,10.08808 -0.61051,13.22725 -4.06036,20.42184 -6.16358,12.85393 -16.9338,20.96405 -32.35585,24.36438 -4.57777,1.00933 -17.45894,1.44581 -21.90436,0.74222 z m 20.05068,-23.00898 c 4.42962,-2.08267 7.69489,-5.3496 9.97395,-9.97903 1.56819,-3.18548 1.80996,-4.28735 2.00475,-9.13681 0.34198,-8.51449 -1.18528,-13.74504 -5.17973,-17.73949 -6.90842,-6.90841 -19.13597,-7.61533 -33.81391,-1.95491 -6.84477,2.63962 -6.43394,1.85504 -5.69887,10.88297 1.26105,15.48785 4.98927,23.8245 12.31458,27.5365 3.89972,1.97615 6.22373,2.41093 11.84414,2.21592 4.22823,-0.14671 5.61408,-0.44237 8.55509,-1.82515 z m 445.47663,23.01726 c -22.2544,-3.13917 -35.7679,-16.84585 -39.623,-40.18961 -1.4148,-8.56663 -0.9146,-23.78127 1.0239,-31.14606 2.5623,-9.7345 6.2416,-16.66804 12.1409,-22.87843 8.9215,-9.39184 20.0413,-14.14447 34.8755,-14.90573 10.4435,-0.53597 19.4546,1.11935 27.597,5.06959 6.1799,2.99815 10.7518,6.65349 14.4306,11.53813 6.8313,9.07023 9.8994,18.82872 10.52,33.45983 1.2938,30.50826 -12.4863,51.80787 -37.5147,57.98526 -5.1996,1.28334 -17.8393,1.85847 -23.4502,1.06702 z m 16.5018,-22.27819 c 8.2342,-1.9381 13.9279,-8.3901 16.8722,-19.11897 1.256,-4.57698 1.4079,-21.74457 0.2342,-26.49319 -2.1062,-8.52264 -7.2577,-15.17169 -13.74,-17.73413 -2.6198,-1.03559 -4.2285,-1.25384 -9.2432,-1.25384 -7.7054,0 -10.9872,1.16268 -15.7635,5.58477 -6.3474,5.87659 -9.1021,14.38706 -8.9832,27.75367 0.08,8.97707 1.0919,14.01219 3.9578,19.68949 4.8541,9.61577 15.4469,14.21279 26.6657,11.5722 z m 231.7341,22.02795 c -8.7743,-1.44294 -16.398,-5.03461 -20.5602,-9.68626 -1.2225,-1.36605 -3.0588,-4.22948 -4.0811,-6.36315 -3.5498,-7.40987 -3.6436,-8.39972 -3.9101,-41.2418 l -0.2406,-29.66685 h -14.0291 -14.029 v -9.93495 -9.93495 h 14.0746 14.0744 V 345.84999 332.4104 l 12.1717,-3.14709 c 6.6944,-1.73089 12.5312,-3.28504 12.9707,-3.45368 0.6865,-0.26346 0.7988,2.06923 0.7988,16.5867 v 16.89325 h 20.698 20.6977 v 9.93495 9.93495 h -20.7309 -20.7307 l 0.1963,27.18312 c 0.2256,31.27225 0.2114,31.16494 4.7425,35.69616 3.4815,3.4814 6.0936,4.1909 15.2731,4.14834 6.4206,-0.0298 16.9659,-1.47664 20.4184,-2.80152 0.7221,-0.27705 0.8313,1.02522 0.8313,9.90524 v 10.22423 l -2.8975,0.62673 c -11.2493,2.43298 -27.4962,3.33118 -35.7383,1.97576 z m 90.9363,0.26754 c -12.8181,-2.34132 -21.6878,-10.47314 -24.4596,-22.42501 -1.1775,-5.07707 -1.1646,-13.56816 0.027,-17.69527 3.0229,-10.47187 11.0532,-17.98572 23.7414,-22.21446 8.1637,-2.72089 13.61,-3.46041 27.7898,-3.77353 l 12.8901,-0.28461 -0.22,-6.13882 c -0.1748,-4.87515 -0.4592,-6.59476 -1.3818,-8.35381 -3.5568,-6.78176 -10.5784,-9.49887 -23.0742,-8.92893 -9.8032,0.44711 -21.304,3.14967 -30.7709,7.23079 l -2.0697,0.89228 v -10.17867 -10.17868 l 3.0955,-1.15818 c 8.8627,-3.31599 20.1364,-5.4566 31.1249,-5.90998 23.4831,-0.96891 38.8493,5.07094 44.9617,17.67274 3.5549,7.32908 3.6091,8.0965 3.6091,51.11029 v 38.65918 h -10.6843 -10.6841 l -0.3547,-3.39261 c -0.195,-1.86595 -0.3545,-4.84642 -0.3545,-6.6233 0,-1.77689 -0.198,-3.2307 -0.44,-3.2307 -0.242,0 -1.4217,1.01687 -2.6217,2.25969 -4.9333,5.1093 -12.9553,9.75899 -20.0407,11.61576 -4.7458,1.24364 -15.8379,1.82128 -20.0831,1.04583 z m 21.8848,-20.37616 c 3.8635,-1.35797 8.4501,-4.51189 13.7252,-9.43826 l 4.2638,-3.98189 v -7.12073 -7.12072 l -10.073,0.01 c -11.1241,0.0106 -15.885,0.71475 -20.674,3.05778 -3.3873,1.65728 -6.3451,4.87809 -7.2484,7.89335 -0.8006,2.67208 -0.829,7.78545 -0.054,9.83915 0.7121,1.88905 3.5629,4.95132 5.6057,6.0213 3.8465,2.01503 10.0818,2.37758 14.4553,0.84045 z m 343.8268,20.36644 c -25.1571,-3.57328 -39.1943,-18.8238 -41.6717,-45.27304 -2.0333,-21.70857 5.2151,-42.73345 18.4682,-53.57055 4.3883,-3.58817 13.228,-7.88272 18.8717,-9.1682 6.487,-1.47766 19.8876,-1.31989 25.9113,0.30505 15.582,4.20337 25.9451,14.59851 30.223,30.31625 0.9382,3.44765 1.2036,6.3595 1.4067,15.43776 0.1378,6.15377 0.096,11.80427 -0.094,12.55667 l -0.3433,1.36802 h -34.4858 -34.4859 v 2.23679 c 0,3.79457 1.6292,9.64762 3.6264,13.02808 4.9544,8.38669 14.0576,12.85005 26.2581,12.87457 8.7542,0.0175 23.5624,-1.96605 31.0673,-4.16161 1.497,-0.43796 2.8009,-0.79629 2.8977,-0.79629 0.096,0 0.1757,4.46378 0.1757,9.91953 v 9.91953 l -2.8976,0.81695 c -12.3591,3.48442 -35.0196,5.59796 -44.9289,4.19049 z m 27.7574,-70.09185 c -0.6378,-6.86187 -3.8662,-13.34324 -8.2576,-16.57773 -5.5532,-4.09021 -15.1005,-4.98364 -21.5762,-2.01902 -3.9853,1.82453 -8.0419,5.67384 -10.1391,9.62104 -1.7431,3.28078 -3.4313,8.88297 -3.4313,11.38728 v 1.43817 h 21.8811 21.8809 z m -272.4598,69.45566 c -6.4525,-0.6607 -12.8968,-1.87896 -20.5598,-3.88676 l -6.4853,-1.69923 v -71.1296 -71.1296 h 12.7724 12.7726 l -0.3666,25.25132 c -0.2018,13.88822 -0.5068,26.369 -0.6781,27.73506 l -0.3115,2.48374 2.6108,-2.93885 c 9.5576,-10.75847 22.7785,-15.2442 36.9423,-12.53424 6.7895,1.29908 11.9465,4.10881 17.148,9.3432 8.6865,8.7414 13.0145,20.82576 13.8583,38.69444 0.6265,13.26604 -1.3151,23.85565 -6.1733,33.66842 -7.3227,14.79108 -19.5645,23.26239 -37.4552,25.9189 -6.1264,0.90967 -16.4369,1.00525 -24.0746,0.2232 z m 24.9375,-21.55463 c 7.6196,-3.61851 12.8127,-10.85714 15.1702,-21.14572 1.1988,-5.23122 1.3476,-20.00771 0.256,-25.38931 -1.2042,-5.93507 -3.3476,-11.11846 -5.7059,-13.79754 -3.3698,-3.82832 -5.8975,-4.94744 -11.2003,-4.95892 -3.7782,-0.008 -4.8935,0.2246 -7.7272,1.61275 -3.6277,1.77713 -10.302,8.06696 -14.7878,13.93602 l -2.6105,3.41564 0.144,23.02213 0.1441,23.02215 2.15,0.74422 c 3.5343,1.22344 8.5527,1.78951 14.4781,1.63313 5.0946,-0.13444 5.9523,-0.31989 9.6893,-2.09455 z M 287.78775,411.99999 v -52.71041 h 11.25575 c 12.90567,0 11.8986,-0.4796 11.97415,5.70255 0.0265,2.17604 0.21287,5.15359 0.41395,6.61676 l 0.3656,2.66034 2.10321,-2.76426 c 6.69131,-8.7946 16.23317,-13.65246 27.97761,-14.24372 10.52239,-0.52973 18.41249,2.11913 24.509,8.22812 6.28718,6.30005 9.51679,15.12703 10.10071,27.60664 l 0.32927,7.03724 h -12.69772 -12.69774 l -0.30392,-5.38142 c -0.65622,-11.61865 -5.58051,-17.39922 -14.07503,-16.52251 -6.24505,0.64455 -12.9659,5.63233 -19.72555,14.63903 l -3.58804,4.7808 v 33.53064 33.53062 h -12.97062 -12.97063 z m 104.31694,0 v -52.71041 h 9.31644 9.31645 l 0.40393,7.54196 0.40395,7.54196 2.00838,-3.80531 c 2.71422,-5.14269 7.56306,-10.24723 11.25289,-11.84629 5.81002,-2.5179 14.69203,-1.87445 19.67879,1.42563 3.50662,2.32058 5.87926,6.45296 6.90804,12.03161 l 0.39218,2.12671 2.67397,-4.34505 c 3.13113,-5.08792 7.7708,-9.69124 11.46673,-11.37688 3.52571,-1.60802 12.24281,-1.7205 16.56505,-0.21376 4.23572,1.4766 8.34922,5.46248 10.53797,10.21106 3.52713,7.65216 3.52527,7.62562 3.78643,54.04366 l 0.23678,42.08553 h -11.05518 -11.0552 l -0.16117,-40.98165 c -0.17544,-44.60745 -0.1087,-43.66879 -3.26136,-45.87701 -4.18567,-2.93175 -8.82499,1.09756 -13.58026,11.79462 l -2.08557,4.6915 -0.14988,35.18627 -0.14988,35.18627 H 444.5408 433.52745 l -0.15156,-41.25762 c -0.14692,-39.99649 -0.18529,-41.32484 -1.25545,-43.4561 -0.79654,-1.58637 -1.59819,-2.33705 -2.87931,-2.6963 -3.98268,-1.11675 -7.48048,2.17801 -11.9348,11.2421 l -2.84801,5.79538 -0.14989,35.18627 -0.14988,35.18627 h -11.02692 -11.02694 z m 294.73671,38.91189 v -13.79855 h -31.73659 -31.73664 l 0.011,-10.62487 0.011,-10.62487 26.53288,-43.46539 26.53285,-43.4654 h 17.3355 17.3355 v 43.05144 43.05143 h 10.4869 10.4869 v 11.03884 11.03882 h -10.4869 -10.4869 v 13.79855 13.79853 h -12.1427 -12.1427 z m 0,-66.34338 c 0,-18.01057 -0.2025,-30.25279 -0.4953,-29.94281 -0.6368,0.67418 -37.07525,58.80356 -37.43552,59.72005 -0.21378,0.54388 3.77233,0.68993 18.82982,0.68993 h 19.101 z m 418.3717,27.43149 v -52.71041 h 11.2558 c 12.9057,0 11.8987,-0.4796 11.9742,5.70255 0.027,2.17604 0.2128,5.15359 0.414,6.61676 l 0.3655,2.66034 2.1032,-2.76426 c 6.6914,-8.7946 16.2333,-13.65246 27.9776,-14.24372 10.5224,-0.52973 18.4125,2.11913 24.509,8.22812 6.2872,6.30005 9.5169,15.12703 10.1007,27.60664 l 0.3293,7.03724 h -12.6977 -12.6976 l -0.3041,-5.38142 c -0.6562,-11.61865 -5.5804,-17.39922 -14.0749,-16.52251 -6.2451,0.64455 -12.966,5.63233 -19.7256,14.63903 l -3.5881,4.7808 v 33.53064 33.53062 h -12.9705 -12.9708 z m 463.631,42.77547 v -9.93495 h 16.8342 16.8341 v -53.53832 -53.53833 h -14.9023 -14.9024 v -9.93495 -9.93493 h 27.8731 27.873 v 63.47325 63.47328 h 15.1784 15.1783 v 9.93495 9.93495 h -44.9832 -44.9832 z"
       id="path3" /><path
       style="fill:#8363af;stroke:none"
       d="m 2049.9201,137.8716 c -30.7294,4.08438 -54.736,26.95645 -56.9028,58.6084 -2.2552,32.94141 -0.057,66.81277 -0.057,99.84 v 202.88 65.28 c 0,19.55898 -0.4611,38.32562 11.4622,55.04 25.2675,35.42055 74.2454,26.24 112.0578,26.24 h 215.04 69.12 c 13.0683,0 26.7498,1.16137 39.68,-0.92051 24.6765,-3.97312 44.854,-23.43488 50.2878,-47.71949 2.7791,-12.42031 1.5522,-25.75145 1.5522,-38.4 v -281.6 -57.6 c 0,-20.7784 0.3144,-40.17621 -12.8839,-57.6 -25.5142,-33.68266 -74.9577,-24.32 -111.9161,-24.32 h -212.48 -69.12 c -11.703,0 -24.2394,-1.27027 -35.84,0.2716 z"
       id="path4" /><path
       style="fill:#ffffff;fill-opacity:1;stroke:none"
       d="m 2196.4801,263.04 v 91.52 h -60.8 l 25.6,26.24 54.4,53.76 19.2,19.2 7.68,6.26766 7.68,-6.26766 19.2,-19.2 54.4,-53.76 25.6,-26.24 h -60.8 v -91.52 h -92.16 m -61.44,228.48 v 30.08 h 215.04 v -30.08 z"
       id="path5" /></g></svg>
