<?xml version="1.0" encoding="UTF-8" standalone="no"?>
<!-- Created with Inkscape (http://www.inkscape.org/) -->

<svg
   version="1.1"
   id="svg1"
   width="2627.8401"
   height="784"
   viewBox="0 0 2627.8401 784"
   xml:space="preserve"
   xmlns="http://www.w3.org/2000/svg"
   xmlns:svg="http://www.w3.org/2000/svg"><defs
     id="defs1" /><g
     id="g1"><path
       style="display:inline;fill:#000000;stroke:none;stroke-width:0.969715"
       d="m 2487.4771,764.52123 c 13.9165,-1.76093 27.2629,-3.50014 40.4581,-8.54551 37.5488,-14.35748 65.9338,-44.42245 78.1698,-81.37062 7.8148,-23.59781 5.907,-48.69225 5.907,-73.11464 V 489.99063 256.02376 178.6441 c 0,-12.82973 1.1534,-26.22551 -0.1073,-38.99448 -4.7456,-48.062936 -31.6505,-88.864536 -77.648,-109.805476 -27.1656,-12.36755 -56.0799,-11.443 -85.3411,-11.443 H 2340.8168 1919.1683 651.69426 281.88266 181.36976 c -27.4428,0 -54.1622,-0.98072 -80.284,8.56911 -49.243903,18.00293 -81.109203,63.42232 -84.652403,113.288656 -2.4139,33.97272 -0.056,68.90829 -0.056,102.9698 v 208.98601 131.60637 c 0,24.6692 -2.3144,50.55665 1.9478,74.94251 8.5721,49.04595 47.6036,89.28519 97.300703,101.91298 30.3953,7.72329 64.2832,4.10325 95.4556,4.10325 h 168.7854 549.9763 1046.85144 342.6289 111.8917 c 18.3231,0 38.1032,2.03917 56.2619,-0.2586 z"
       id="path1" /><path
       style="display:inline;fill:#8363af;stroke:none;stroke-width:0.975471"
       d="m 135.53066,16.644977 c -13.97368,1.774602 -27.37492,3.527317 -40.624278,8.611869 -37.722245,14.476238 -66.187254,44.751718 -78.491103,82.002454 -7.8572691,23.78839 -5.93123,49.06027 -5.93123,73.68238 v 112.36564 235.7836 77.98054 c 0,12.92934 -1.1581909,26.42916 0.107752,39.29726 4.766579,48.45158 31.756969,89.54376 77.967035,110.65811 27.277314,12.46358 56.310314,11.53184 85.691834,11.53184 h 108.543 423.38116 1272.68237 371.3314 100.9259 c 27.5556,0 54.3848,0.98835 80.6139,-8.63563 49.4664,-18.15007 81.4412,-63.89674 85.0002,-114.16833 2.4669,-34.84406 0.058,-70.67627 0.058,-105.61142 v -213.6789 -129.5582 c 0,-24.64676 2.3707,-50.57906 -2.1737,-74.91042 -9.276,-49.66312 -48.6607,-89.070348 -98.7531,-101.832546 -29.9462,-7.629601 -63.8694,-3.77886 -94.5783,-3.77886 H 2251.1669 1698.2959 647.14267 303.74056 192.0238 c -18.39839,0 -38.25982,-2.055003 -56.49314,0.260613 m 1.26949,42.896092 c 17.70683,-2.022247 36.75118,-0.175316 54.58889,-0.175316 h 109.17775 332.61129 1015.60692 578.896 181.5397 55.2237 c 13.2193,0 26.3827,-0.634482 39.3547,2.241937 9.1379,2.026221 18.0817,5.39486 26.0249,10.235064 7.1015,4.327295 13.1788,9.348137 19.0333,15.153892 28.5932,28.354944 23.4954,68.169174 23.4954,104.383374 v 384.99043 c 0,45.65596 8.5523,98.06555 -33.0072,130.2902 -6.3427,4.91785 -13.4314,9.13871 -20.947,12.1553 -21.1813,8.50168 -43.5947,6.76134 -66.0144,6.76134 H 2350.8234 1983.3006 705.54006 289.77597 176.15495 c -23.37455,0 -47.33359,2.12223 -69.18824,-7.55773 C 99.46975,714.69897 92.250661,710.37909 86.019821,705.13699 45.018843,670.64207 54.916852,615.46527 54.916852,568.3882 V 182.78374 c 0,-17.79 -2.220249,-37.17765 1.689739,-54.64777 8.557841,-38.237046 40.69038,-64.083444 80.193559,-68.594901 z"
       id="path2" /><path
       style="fill:#ffffff"
       d="m 773.13224,444.1964 v -85.12 h 12.8 12.8 l 0.005,4.32 c 0.003,2.376 0.18922,6.27538 0.41491,8.6653 l 0.41036,4.3453 4.86509,-5.01282 c 2.6758,-2.75705 6.25111,-5.96267 7.94513,-7.12359 12.81622,-8.78305 30.57621,-10.18978 44.48768,-3.52377 6.74131,3.23026 14.14689,10.63806 17.87034,17.87572 5.1558,10.02184 7.59384,20.21271 8.26181,34.53386 0.72505,15.54491 -1.48042,27.58153 -7.1533,39.04 -8.49109,17.15089 -22.68604,26.97375 -43.43098,30.05407 -9.70297,1.44076 -17.52826,1.26388 -27.43559,-0.62013 l -2.4,-0.4564 v 24.07123 24.07123 h -14.72 -14.72 z m 60.27624,13.31937 c 8.83519,-4.19582 14.85681,-12.58933 17.59054,-24.51937 1.38996,-6.06584 1.56261,-23.1998 0.29665,-29.44 -1.39615,-6.88198 -3.88167,-12.89236 -6.61612,-15.99886 -3.90745,-4.43909 -6.83841,-5.73676 -12.98731,-5.75007 -4.38104,-0.009 -5.67421,0.26042 -8.96,1.87004 -4.2065,2.06066 -11.94556,9.354 -17.14702,16.15944 l -3.02708,3.96056 0.16705,26.69517 0.16705,26.69517 2.49295,0.86295 c 4.09825,1.41863 9.91728,2.07502 16.78814,1.8937 5.90727,-0.1559 6.902,-0.37093 11.23515,-2.42873 z m -425.19532,25.71284 c -6.56716,-1.03939 -11.64147,-2.58768 -16.84093,-5.13859 -15.61723,-7.66196 -24.66711,-22.17445 -28.19546,-45.21459 -1.38639,-9.05309 -1.40259,-29.47592 -0.0324,-40.83903 4.06089,-33.67758 17.78062,-53.06958 44.27985,-62.58688 10.81195,-3.88315 23.91654,-5.57312 43.21583,-5.57312 h 12.73219 v 12.48 12.48 h -13.61679 c -7.48923,0 -16.05723,0.29435 -19.04,0.65411 -22.48213,2.71165 -34.23048,14.41402 -36.25696,36.11505 l -0.39246,4.20275 3.45616,-1.52848 c 16.8473,-7.45067 41.32019,-7.16957 56.40282,0.64786 6.26166,3.24547 14.1714,11.11529 16.95426,16.86871 3.90744,8.07844 4.94373,13.22735 4.95914,24.64 0.0158,11.69755 -0.70793,15.33757 -4.70819,23.68 -7.14691,14.90469 -19.63544,24.30872 -37.51798,28.25155 -5.30814,1.17037 -20.2444,1.67649 -25.39907,0.86066 z M 431.4628,456.5487 c 5.13633,-2.41495 8.92256,-6.20311 11.56523,-11.57114 1.81839,-3.69368 2.09873,-4.97136 2.32459,-10.59452 0.39655,-9.87292 -1.37438,-15.93797 -6.00612,-20.5697 -8.0106,-8.01061 -22.18897,-8.83031 -39.20869,-2.26682 -7.93681,3.06076 -7.46042,2.15102 -6.60808,12.61928 1.46224,17.95884 5.78527,27.62553 14.27928,31.92977 4.5219,2.29142 7.21669,2.79559 13.73379,2.56946 4.90283,-0.17012 6.50979,-0.51295 9.92,-2.11633 z m 515.90925,26.68949 c -25.80488,-3.63999 -41.47427,-19.53349 -45.94446,-46.60158 -1.64046,-9.93338 -1.06048,-27.57543 1.18728,-36.11521 2.971,-11.28758 7.23745,-19.32731 14.07792,-26.52854 10.34467,-10.89025 23.23859,-16.40111 40.43946,-17.28384 12.10988,-0.62146 22.55845,1.29795 31.99995,5.8784 7.166,3.47651 12.4671,7.71503 16.7329,13.37897 7.9212,10.51732 11.4788,21.83274 12.1983,38.79813 1.5003,35.37565 -14.4784,60.07347 -43.4997,67.23642 -6.02919,1.48809 -20.68564,2.15497 -27.19165,1.23725 z m 19.13457,-25.83251 c 9.54788,-2.24732 16.15008,-9.72869 19.56408,-22.16928 1.4564,-5.30721 1.6324,-25.21378 0.2716,-30.72 -2.4422,-9.88238 -8.4157,-17.59222 -15.93219,-20.5635 -3.03769,-1.2008 -4.90324,-1.45386 -10.71786,-1.45386 -8.93478,0 -12.74014,1.34817 -18.27855,6.47576 -7.36011,6.81416 -10.55422,16.68243 -10.41637,32.1816 0.0926,10.40929 1.26619,16.24773 4.58932,22.83081 5.62845,11.14989 17.91134,16.48035 30.91997,13.41847 z m 269.34568,25.54234 c -10.1741,-1.67315 -19.0142,-5.83784 -23.8405,-11.23162 -1.4174,-1.584 -3.5468,-4.90427 -4.7321,-7.37836 -4.1162,-8.59206 -4.225,-9.73983 -4.5339,-47.82164 l -0.279,-34.4 h -16.2673 -16.2672 v -11.52 -11.52 h 16.32 16.32 v -15.5838 -15.58379 l 14.1135,-3.64917 c 7.7625,-2.00705 14.5305,-3.80915 15.04,-4.00468 0.7962,-0.30551 0.9265,2.39934 0.9265,19.23296 v 19.58848 h 24 24 v 11.52 11.52 h -24.0383 -24.0383 l 0.2275,31.52 c 0.2617,36.26153 0.2452,36.13709 5.4994,41.39124 4.0368,4.03685 7.0657,4.85953 17.7097,4.81018 7.4449,-0.0345 19.6726,-1.71223 23.676,-3.24847 0.8372,-0.32127 0.964,1.18878 0.964,11.48554 v 11.85544 l -3.36,0.72671 c -13.0438,2.82116 -31.8829,3.86266 -41.44,2.29098 z m 104.8046,0.31024 c -14.8632,-2.71487 -25.1479,-12.14406 -28.362,-26.00277 -1.3653,-5.88709 -1.3504,-15.73287 0.031,-20.51843 3.5052,-12.14258 12.8167,-20.85522 27.5291,-25.75863 9.4663,-3.15498 15.7815,-4.01251 32.2236,-4.37556 l 14.9465,-0.33004 -0.2551,-7.11822 c -0.2026,-5.65295 -0.5324,-7.64691 -1.6021,-9.6866 -4.1243,-7.86375 -12.2661,-11.01435 -26.7557,-10.35348 -11.3672,0.51845 -24.7028,3.65217 -35.68,8.38441 l -2.4,1.03463 v -11.8026 -11.80261 l 3.5894,-1.34298 c 10.2768,-3.84502 23.3489,-6.32716 36.0906,-6.85288 27.2298,-1.12348 45.0475,5.87999 52.1351,20.49232 4.122,8.49839 4.1849,9.38825 4.1849,59.2646 v 44.82698 h -12.3889 -12.3888 l -0.4112,-3.93389 c -0.2261,-2.16363 -0.4111,-5.61963 -0.4111,-7.68 0,-2.06036 -0.2296,-3.74611 -0.5101,-3.74611 -0.2806,0 -1.6486,1.17909 -3.04,2.6202 -5.7203,5.92445 -15.0223,11.31596 -23.2381,13.46896 -5.5029,1.44207 -18.3646,2.11185 -23.2872,1.2127 z m 25.3763,-23.62704 c 4.4801,-1.57463 9.7983,-5.23173 15.915,-10.94407 l 4.9441,-4.61719 v -8.25678 -8.25678 l -11.68,0.0111 c -12.8989,0.0123 -18.4194,0.82878 -23.9724,3.54561 -3.9278,1.92171 -7.3574,5.65638 -8.4049,9.15268 -0.9283,3.09841 -0.9613,9.02758 -0.063,11.40893 0.8258,2.19043 4.1315,5.74125 6.5,6.98195 4.4603,2.33654 11.6905,2.75691 16.7617,0.97454 z m 399.3222,23.61576 c -29.1708,-4.14336 -45.4477,-21.827 -48.3202,-52.49605 -2.3576,-25.17202 6.0471,-49.55128 21.4147,-62.11736 5.0883,-4.16064 15.3384,-9.14036 21.8824,-10.63095 7.5221,-1.71339 23.0607,-1.53045 30.0454,0.35374 18.068,4.874 30.0845,16.92759 35.0448,35.15302 1.088,3.99769 1.3957,7.3741 1.6313,17.90074 0.1597,7.13555 0.1112,13.68755 -0.1078,14.56 l -0.3981,1.58628 h -39.9878 -39.9878 v 2.59366 c 0,4.39995 1.889,11.18682 4.2047,15.10662 5.7451,9.72473 16.3006,14.90019 30.4475,14.9286 10.1509,0.0204 27.3218,-2.27971 36.0239,-4.82554 1.7359,-0.50784 3.2479,-0.92334 3.36,-0.92334 0.1122,0 0.2039,5.17595 0.2039,11.50212 v 11.50212 l -3.36,0.94729 c -14.331,4.04034 -40.6069,6.49108 -52.0969,4.85905 z m 32.1858,-81.27453 c -0.7395,-7.95662 -4.483,-15.47206 -9.575,-19.22259 -6.4392,-4.74279 -17.5098,-5.77874 -25.0185,-2.34114 -4.6212,2.11562 -9.325,6.57906 -11.7568,11.156 -2.0213,3.80419 -3.9786,10.30019 -3.9786,13.20406 v 1.66762 h 25.3719 25.3719 z m -315.9289,80.53684 c -7.482,-0.76611 -14.9544,-2.17873 -23.84,-4.50687 l -7.52,-1.97032 V 393.55425 311.0764 h 14.8103 14.8102 l -0.425,29.28 c -0.2338,16.104 -0.5877,30.576 -0.7863,32.16 l -0.3612,2.88 3.0274,-3.40772 c 11.0824,-12.47491 26.4125,-17.67632 42.836,-14.53399 7.8729,1.50634 13.8525,4.76434 19.8839,10.83384 10.0724,10.13603 15.0909,24.14837 16.0694,44.86787 0.7265,15.38256 -1.525,27.66168 -7.1582,39.04 -8.4911,17.15089 -22.686,26.97375 -43.4309,30.05407 -7.1038,1.05481 -19.0593,1.16566 -27.9156,0.25882 z m 28.9162,-24.99352 c 8.8352,-4.19582 14.8568,-12.58933 17.5905,-24.51937 1.39,-6.06584 1.5627,-23.1998 0.2967,-29.44 -1.3962,-6.88198 -3.8817,-12.89236 -6.6161,-15.99886 -3.9075,-4.43909 -6.8384,-5.73676 -12.9873,-5.75007 -4.3811,-0.009 -5.6742,0.26042 -8.96,1.87004 -4.2065,2.06066 -11.9456,9.354 -17.1471,16.15944 l -3.027,3.96056 0.167,26.69517 0.1671,26.69517 2.4929,0.86295 c 4.0983,1.41863 9.9173,2.07502 16.7882,1.8937 5.9072,-0.1559 6.902,-0.37093 11.2351,-2.42873 z M 218.89222,480.96911 c 0,-0.19101 10.19029,-14.06051 22.64508,-30.82112 l 22.64508,-30.47383 -21.1227,-29.49888 C 231.4422,373.95089 221.64865,360.3164 221.29624,359.8764 c -0.50957,-0.63622 3.0368,-0.8 17.32228,-0.8 h 17.96302 l 10.51809,15.52 c 5.78495,8.536 11.94493,17.58971 13.68884,20.11936 l 3.17076,4.59936 13.5692,-20.11936 13.5692,-20.11936 h 16.33507 c 12.89113,0 16.23635,0.16866 15.86681,0.8 -0.25754,0.44 -9.63454,13.95711 -20.83777,30.03802 -11.20323,16.08091 -20.36951,29.38298 -20.36951,29.56015 0,0.29009 38.94406,54.74625 42.73838,59.76183 l 1.57354,2.08 h -18.27737 -18.27737 l -13.70974,-20.32 c -7.54036,-11.176 -13.95248,-20.32 -14.24916,-20.32 -0.29668,0 -6.72539,9.144 -14.28603,20.32 l -13.7466,20.32 h -17.48283 c -9.61555,0 -17.48283,-0.15628 -17.48283,-0.34729 z M 563.85224,465.3164 v -16 h -36.80001 -36.8 l 0.0127,-12.32 0.0127,-12.32 30.76603,-50.4 30.76603,-50.4 h 20.10123 20.10123 v 49.92 49.92 h 12.16 12.16 v 12.8 12.8 h -12.16 -12.16 v 16 16 h -14.08 -14.08 z m 0,-76.928 c 0,-20.88405 -0.23482,-35.07942 -0.57433,-34.72 -0.73847,0.78175 -42.9904,68.18528 -43.40815,69.248 -0.2479,0.63064 4.37417,0.8 21.834,0.8 h 22.14848 z m 485.12006,31.808 v -61.12 h 13.0515 c 14.9647,0 13.7969,-0.55613 13.8845,6.61234 0.031,2.52321 0.2469,5.9758 0.48,7.67243 l 0.424,3.08477 2.4387,-3.2053 c 7.7589,-10.19769 18.8231,-15.83059 32.4413,-16.51618 12.2011,-0.61425 21.35,2.45721 28.4192,9.54086 7.2903,7.30519 11.0351,17.54045 11.7122,32.01108 l 0.3818,8.16 h -14.7235 -14.7236 l -0.3524,-6.24 c -0.7609,-13.47232 -6.4709,-20.17514 -16.3206,-19.15856 -7.2414,0.74738 -15.0346,6.53093 -22.8727,16.97459 l -4.1604,5.54354 v 38.88021 38.88022 h -15.04 -15.04 z m 537.6,49.6 v -11.52 h 19.52 19.52 v -62.08 -62.08 h -17.28 -17.28 v -11.52 -11.52 h 32.32 32.32 v 73.6 73.6 h 17.6 17.6 v 11.52 11.52 h -52.16 -52.16 z"
       id="path3" /><path
       style="fill:#8363af;stroke:none"
       d="m 2049.9201,137.8716 c -30.7294,4.08438 -54.736,26.95645 -56.9028,58.6084 -2.2552,32.94141 -0.057,66.81277 -0.057,99.84 v 202.88 65.28 c 0,19.55898 -0.4611,38.32562 11.4622,55.04 25.2675,35.42055 74.2454,26.24 112.0578,26.24 h 215.04 69.12 c 13.0683,0 26.7498,1.16137 39.68,-0.92051 24.6765,-3.97312 44.854,-23.43488 50.2878,-47.71949 2.7791,-12.42031 1.5522,-25.75145 1.5522,-38.4 v -281.6 -57.6 c 0,-20.7784 0.3144,-40.17621 -12.8839,-57.6 -25.5142,-33.68266 -74.9577,-24.32 -111.9161,-24.32 h -212.48 -69.12 c -11.703,0 -24.2394,-1.27027 -35.84,0.2716 z"
       id="path4" /><path
       style="fill:#ffffff;fill-opacity:1;stroke:none"
       d="m 2196.4801,263.04 v 91.52 h -60.8 l 25.6,26.24 54.4,53.76 19.2,19.2 7.68,6.26766 7.68,-6.26766 19.2,-19.2 54.4,-53.76 25.6,-26.24 h -60.8 v -91.52 h -92.16 m -61.44,228.48 v 30.08 h 215.04 v -30.08 z"
       id="path5" /></g></svg>
