<?xml version="1.0" encoding="UTF-8" standalone="no"?>
<!-- Created with Inkscape (http://www.inkscape.org/) -->

<svg
   version="1.1"
   id="svg1"
   width="2627.8401"
   height="784"
   viewBox="0 0 2627.8401 784"
   xml:space="preserve"
   xmlns="http://www.w3.org/2000/svg"
   xmlns:svg="http://www.w3.org/2000/svg"><defs
     id="defs1" /><g
     id="g1"><path
       style="display:inline;fill:#000000;stroke:none;stroke-width:0.969715"
       d="m 2487.4771,764.52123 c 13.9165,-1.76093 27.2629,-3.50014 40.4581,-8.54551 37.5488,-14.35748 65.9338,-44.42245 78.1698,-81.37062 7.8148,-23.59781 5.907,-48.69225 5.907,-73.11464 V 489.99063 256.02376 178.6441 c 0,-12.82973 1.1534,-26.22551 -0.1073,-38.99448 -4.7456,-48.062936 -31.6505,-88.864536 -77.648,-109.805476 -27.1656,-12.36755 -56.0799,-11.443 -85.3411,-11.443 H 2340.8168 1919.1683 651.69426 281.88266 181.36976 c -27.4428,0 -54.1622,-0.98072 -80.284,8.56911 -49.243903,18.00293 -81.109203,63.42232 -84.652403,113.288656 -2.4139,33.97272 -0.056,68.90829 -0.056,102.9698 v 208.98601 131.60637 c 0,24.6692 -2.3144,50.55665 1.9478,74.94251 8.5721,49.04595 47.6036,89.28519 97.300703,101.91298 30.3953,7.72329 64.2832,4.10325 95.4556,4.10325 h 168.7854 549.9763 1046.85144 342.6289 111.8917 c 18.3231,0 38.1032,2.03917 56.2619,-0.2586 z"
       id="path1" /><path
       style="display:inline;fill:#8363af;stroke:none;stroke-width:0.975471"
       d="m 135.53066,16.644977 c -13.97368,1.774602 -27.37492,3.527317 -40.624278,8.611869 -37.722245,14.476238 -66.187254,44.751718 -78.491103,82.002454 -7.8572691,23.78839 -5.93123,49.06027 -5.93123,73.68238 v 112.36564 235.7836 77.98054 c 0,12.92934 -1.1581909,26.42916 0.107752,39.29726 4.766579,48.45158 31.756969,89.54376 77.967035,110.65811 27.277314,12.46358 56.310314,11.53184 85.691834,11.53184 h 108.543 423.38116 1272.68237 371.3314 100.9259 c 27.5556,0 54.3848,0.98835 80.6139,-8.63563 49.4664,-18.15007 81.4412,-63.89674 85.0002,-114.16833 2.4669,-34.84406 0.058,-70.67627 0.058,-105.61142 v -213.6789 -129.5582 c 0,-24.64676 2.3707,-50.57906 -2.1737,-74.91042 -9.276,-49.66312 -48.6607,-89.070348 -98.7531,-101.832546 -29.9462,-7.629601 -63.8694,-3.77886 -94.5783,-3.77886 H 2251.1669 1698.2959 647.14267 303.74056 192.0238 c -18.39839,0 -38.25982,-2.055003 -56.49314,0.260613 m 1.26949,42.896092 c 17.70683,-2.022247 36.75118,-0.175316 54.58889,-0.175316 h 109.17775 332.61129 1015.60692 578.896 181.5397 55.2237 c 13.2193,0 26.3827,-0.634482 39.3547,2.241937 9.1379,2.026221 18.0817,5.39486 26.0249,10.235064 7.1015,4.327295 13.1788,9.348137 19.0333,15.153892 28.5932,28.354944 23.4954,68.169174 23.4954,104.383374 v 384.99043 c 0,45.65596 8.5523,98.06555 -33.0072,130.2902 -6.3427,4.91785 -13.4314,9.13871 -20.947,12.1553 -21.1813,8.50168 -43.5947,6.76134 -66.0144,6.76134 H 2350.8234 1983.3006 705.54006 289.77597 176.15495 c -23.37455,0 -47.33359,2.12223 -69.18824,-7.55773 C 99.46975,714.69897 92.250661,710.37909 86.019821,705.13699 45.018843,670.64207 54.916852,615.46527 54.916852,568.3882 V 182.78374 c 0,-17.79 -2.220249,-37.17765 1.689739,-54.64777 8.557841,-38.237046 40.69038,-64.083444 80.193559,-68.594901 z"
       id="path2" /><path
       style="fill:#ffffff;stroke-width:0.915656"
       d="M 971.79402,544.91915 V 466.9785 h 11.72036 11.7204 v 3.95563 c 0,2.1756 0.17324,5.7461 0.3799,7.93444 l 0.37579,3.9788 4.45473,-4.59002 c 2.4501,-2.52451 5.7239,-5.45976 7.275,-6.52276 11.7352,-8.04225 27.9973,-9.33033 40.7354,-3.22656 6.1727,2.95782 12.9537,9.74081 16.3631,16.36802 4.7209,9.17655 6.9534,18.50788 7.565,31.62113 0.6639,14.23379 -1.3556,25.2552 -6.55,35.74722 -7.7749,15.70433 -20.7726,24.69868 -39.7678,27.5192 -8.8846,1.31923 -16.0499,1.15727 -25.1215,-0.56783 l -2.19762,-0.4179 v 22.04096 22.04097 h -13.47846 -13.47847 z m 55.19228,12.19596 c 8.09,-3.84192 13.6038,-11.5275 16.1069,-22.45131 1.2728,-5.55422 1.4308,-21.24304 0.2717,-26.95692 -1.2785,-6.30152 -3.5543,-11.80496 -6.0582,-14.64945 -3.5778,-4.06468 -6.2616,-5.2529 -11.8919,-5.26508 -4.0115,-0.008 -5.1956,0.23846 -8.2043,1.71231 -3.8517,1.88686 -10.9379,8.56504 -15.7007,14.79649 l -2.77181,3.62651 0.153,24.44359 0.15292,24.4436 2.28269,0.79017 c 3.7526,1.29898 9.0809,1.9 15.3722,1.73397 5.409,-0.14274 6.3198,-0.33964 10.2875,-2.22388 z m 69.0439,-12.19596 V 466.9785 h 11.7204 11.7204 v 3.95563 c 0,2.1756 0.1733,5.7461 0.38,7.93444 l 0.3757,3.9788 4.4547,-4.59002 c 2.4501,-2.52451 5.7239,-5.45976 7.275,-6.52276 11.7352,-8.04225 27.9973,-9.33033 40.7354,-3.22656 6.1727,2.95782 12.9537,9.74081 16.3632,16.36802 4.7208,9.17655 6.9533,18.50788 7.5649,31.62113 0.6639,14.23379 -1.3556,25.2552 -6.5499,35.74722 -7.775,15.70433 -20.7727,24.69868 -39.7679,27.5192 -8.8846,1.31923 -16.0499,1.15727 -25.1216,-0.56783 l -2.1975,-0.4179 v 22.04096 22.04097 h -13.4785 -13.4785 z m 55.1922,12.19596 c 8.09,-3.84192 13.6038,-11.5275 16.107,-22.45131 1.2727,-5.55422 1.4308,-21.24304 0.2716,-26.95692 -1.2784,-6.30152 -3.5543,-11.80496 -6.0581,-14.64945 -3.5779,-4.06468 -6.2616,-5.2529 -11.8919,-5.26508 -4.0116,-0.008 -5.1956,0.23846 -8.2043,1.71231 -3.8517,1.88686 -10.9381,8.56504 -15.7007,14.79649 l -2.7718,3.62651 0.1529,24.44359 0.153,24.4436 2.2826,0.79017 c 3.7527,1.29898 9.0809,1.9 15.3723,1.73397 5.4089,-0.14274 6.3198,-0.33964 10.2874,-2.22388 z M 765.15323,580.6963 c -5.62927,-1.34389 -11.41303,-6.13501 -14.16125,-11.7308 -1.4257,-2.90295 -1.59254,-3.88724 -1.59254,-9.39585 0,-5.50862 0.16684,-6.4929 1.59254,-9.39585 4.59885,-9.36397 15.12948,-14.21797 24.80896,-11.43549 6.77228,1.94677 11.07437,5.72285 14.1618,12.43022 1.31657,2.86023 1.57421,4.23518 1.57421,8.40112 0,4.16593 -0.25764,5.54089 -1.57421,8.40112 -0.86582,1.88097 -2.37035,4.42514 -3.3434,5.65372 -4.54978,5.74456 -13.99358,8.85573 -21.46611,7.07181 z m 106.87512,-0.01 c -13.60959,-2.48589 -23.02682,-11.11978 -25.96978,-23.8096 -1.25015,-5.39055 -1.23652,-14.4059 0.0284,-18.78782 3.20956,-11.11843 11.73568,-19.09621 25.20718,-23.58605 8.66788,-2.88888 14.45046,-3.67407 29.5058,-4.00651 l 13.68583,-0.30219 -0.23361,-6.51785 c -0.18552,-5.17615 -0.48749,-7.00195 -1.46701,-8.8696 -3.77635,-7.20049 -11.23147,-10.08536 -24.49901,-9.48023 -10.4084,0.47472 -22.61924,3.34414 -32.67061,7.67725 l -2.19757,0.94736 v -10.80713 -10.80712 l 3.28669,-1.22971 c 9.40997,-3.52073 21.37954,-5.79351 33.04654,-6.27488 24.93313,-1.02873 41.24808,5.38405 47.73783,18.76391 3.77439,7.7816 3.83193,8.59641 3.83193,54.26599 v 41.04608 h -11.34391 -11.34391 l -0.37649,-3.60209 c -0.20708,-1.98115 -0.3765,-5.14565 -0.3765,-7.03224 0,-1.88659 -0.21019,-3.43015 -0.46709,-3.43015 -0.25689,0 -1.50951,1.07964 -2.78359,2.3992 -5.23777,5.42476 -13.75518,10.36153 -21.27805,12.33293 -5.03877,1.32045 -16.81568,1.93374 -21.3231,1.11042 z m 23.23597,-21.63425 c 4.10223,-1.44182 8.97189,-4.79046 14.57269,-10.021 l 4.52705,-4.22776 v -7.5604 -7.56037 l -10.69487,0.0102 c -11.81088,0.0113 -16.8658,0.75888 -21.95043,3.24656 -3.59654,1.75963 -6.73682,5.1793 -7.69599,8.38071 -0.85001,2.83708 -0.88023,8.26616 -0.0581,10.44667 0.75617,2.00568 3.78304,5.25701 5.95171,6.39305 4.08414,2.13947 10.70454,2.52439 15.34798,0.89235 z M 351.7849,312.85526 v -77.94065 h 11.7204 11.7204 l 0.005,3.95563 c 0.003,2.1756 0.17326,5.7461 0.37991,7.93444 l 0.37575,3.9788 4.45475,-4.59002 c 2.45011,-2.52451 5.72387,-5.45976 7.27501,-6.52276 11.73525,-8.04226 27.99729,-9.33034 40.73542,-3.22656 6.17272,2.95781 12.95368,9.74081 16.36308,16.36802 4.72094,9.17655 6.95335,18.50788 7.56498,31.62113 0.6639,14.23379 -1.35556,25.2552 -6.54996,35.74722 -7.77492,15.70432 -20.77262,24.69868 -39.76785,27.5192 -8.88458,1.31923 -16.04986,1.15727 -25.12156,-0.56784 l -2.19758,-0.41789 v 22.04096 22.04097 h -13.47846 -13.47845 z m 55.19231,12.19596 c 8.09,-3.84192 13.60373,-11.5275 16.10689,-22.45131 1.27272,-5.55423 1.43082,-21.24304 0.27164,-26.95692 -1.27841,-6.30153 -3.55429,-11.80496 -6.0581,-14.64945 -3.57788,-4.06468 -6.26164,-5.2529 -11.8919,-5.26508 -4.01154,-0.008 -5.19564,0.23845 -8.20428,1.71231 -3.85172,1.88686 -10.93804,8.56504 -15.70079,14.79648 l -2.77176,3.62651 0.15296,24.4436 0.15296,24.4436 2.28269,0.79017 c 3.75258,1.29898 9.08081,1.9 15.37216,1.73397 5.40903,-0.14274 6.31986,-0.33964 10.28753,-2.22388 z m 69.04393,-12.19596 v -77.94065 h 11.7204 11.72039 l 0.005,3.95563 c 0.002,2.1756 0.17325,5.7461 0.37992,7.93444 l 0.37575,3.9788 4.45475,-4.59002 c 2.45011,-2.52451 5.72385,-5.45976 7.27499,-6.52276 11.73525,-8.04226 27.9973,-9.33034 40.73542,-3.22656 6.17273,2.95781 12.95369,9.74081 16.3631,16.36802 4.72093,9.17655 6.95333,18.50788 7.56497,31.62113 0.66389,14.23379 -1.35556,25.2552 -6.54996,35.74722 -7.77492,15.70432 -20.77261,24.69868 -39.76784,27.5192 -8.8846,1.31923 -16.04987,1.15727 -25.12157,-0.56784 l -2.19757,-0.41789 v 22.04096 22.04097 h -13.47846 -13.47846 z m 55.1923,12.19596 c 8.08999,-3.84192 13.60374,-11.5275 16.10688,-22.45131 1.27274,-5.55423 1.43083,-21.24304 0.27164,-26.95692 -1.2784,-6.30153 -3.55427,-11.80496 -6.0581,-14.64945 -3.57788,-4.06468 -6.26162,-5.2529 -11.8919,-5.26508 -4.01153,-0.008 -5.19562,0.23845 -8.20428,1.71231 -3.85171,1.88686 -10.93803,8.56504 -15.70077,14.79648 l -2.77178,3.62651 0.15297,24.4436 0.15296,24.4436 2.28269,0.79017 c 3.75258,1.29898 9.08081,1.9 15.37216,1.73397 5.40902,-0.14274 6.31986,-0.33964 10.28753,-2.22388 z m -279.19421,23.57127 c -13.60958,-2.48589 -23.02681,-11.11978 -25.96977,-23.8096 -1.25016,-5.39055 -1.23652,-14.4059 0.0284,-18.78782 3.20957,-11.11843 11.73568,-19.09621 25.20717,-23.58605 8.6679,-2.88888 14.45048,-3.67407 29.50581,-4.00651 l 13.68584,-0.30219 -0.23361,-6.51785 c -0.18552,-5.17615 -0.48751,-7.00195 -1.46701,-8.8696 -3.77635,-7.20049 -11.23149,-10.08536 -24.49901,-9.48023 -10.40841,0.47472 -22.61926,3.34414 -32.67062,7.67725 l -2.19757,0.94736 V 251.08012 240.273 l 3.28668,-1.22971 c 9.40998,-3.52073 21.37956,-5.79351 33.04656,-6.27488 24.93312,-1.02873 41.24806,5.38405 47.73783,18.76391 3.77439,7.7816 3.83192,8.59641 3.83192,54.26599 v 41.0461 h -11.34391 -11.3439 l -0.3765,-3.60208 c -0.20706,-1.98115 -0.37649,-5.14566 -0.37649,-7.03224 0,-1.88659 -0.21019,-3.43016 -0.46708,-3.43016 -0.2569,0 -1.50952,1.07964 -2.7836,2.39921 -5.23776,5.42476 -13.75519,10.36152 -21.27804,12.33293 -5.03878,1.32044 -16.81569,1.93374 -21.32312,1.11042 z m 23.23598,-21.63425 c 4.10224,-1.44182 8.97189,-4.79046 14.5727,-10.021 l 4.52704,-4.22776 v -7.56037 -7.56037 l -10.69486,0.0102 c -11.81089,0.0113 -16.8658,0.75888 -21.95043,3.24656 -3.59655,1.75963 -6.73683,5.1793 -7.69599,8.38071 -0.85002,2.83708 -0.88023,8.26616 -0.0582,10.44667 0.75618,2.00568 3.78305,5.25701 5.95172,6.39305 4.08414,2.13947 10.70454,2.52438 15.34798,0.89234 z m 489.29202,21.62392 c -26.71037,-3.79389 -41.61447,-19.98603 -44.24465,-48.06832 -2.15875,-23.04892 5.53703,-45.37194 19.60853,-56.87815 4.65908,-3.80971 14.04462,-8.36943 20.03669,-9.73429 6.88772,-1.56887 21.11573,-1.40136 27.5113,0.3239 16.54409,4.4629 27.54703,15.49986 32.08893,32.18808 0.99625,3.6605 1.278,6.75214 1.49372,16.39093 0.14624,6.5337 0.10184,12.53308 -0.0987,13.33195 l -0.36455,1.45248 h -36.61507 -36.61509 v 2.3749 c 0,4.02885 1.72972,10.24328 3.85011,13.83247 5.26052,8.90451 14.92576,13.64345 27.87939,13.66947 9.29476,0.0187 25.01735,-2.08743 32.98557,-4.41854 1.58947,-0.46501 2.97395,-0.84546 3.0766,-0.84546 0.10265,0 0.18665,4.73939 0.18665,10.53198 v 10.53199 l -3.07661,0.86739 c -13.12224,3.69956 -37.1819,5.9436 -47.70285,4.44922 z m 29.47116,-74.41952 c -0.67712,-7.28553 -4.10492,-14.16709 -8.76743,-17.60128 -5.89605,-4.34276 -16.03297,-5.29134 -22.90837,-2.14368 -4.23136,1.93718 -8.53843,6.02416 -10.76515,10.21506 -1.85078,3.48333 -3.64305,9.43143 -3.64305,12.09037 v 1.52697 h 23.23194 23.23195 z M 1001.388,348.7971 c -9.80239,-0.81277 -22.27352,-2.70491 -26.81039,-4.0677 -0.93342,-0.28038 -1.02553,-1.38925 -1.02553,-12.34466 0,-11.23353 0.0684,-12.00847 1.02553,-11.61463 16.97605,6.98547 39.78209,9.84037 50.85149,6.36566 6.6292,-2.08092 10.5407,-7.64284 9.1106,-12.95434 -1.5284,-5.67612 -7.0633,-8.60153 -28.1206,-14.8631 -9.25861,-2.75312 -18.40418,-6.94779 -22.70749,-10.415 -9.68855,-7.806 -12.8012,-23.23532 -7.10504,-35.21928 1.23584,-2.60005 3.15024,-5.158 5.97476,-7.98322 8.70853,-8.71077 22.47417,-13.12383 40.95207,-13.12866 9.0017,-0.003 22.0792,1.56418 29.8638,3.57736 l 2.1976,0.56831 v 10.73452 10.73453 l -5.7383,-1.61095 c -9.6268,-2.70255 -16.5793,-3.68346 -26.4928,-3.73788 -7.7092,-0.0423 -9.5669,0.12744 -12.2807,1.12219 -6.0696,2.22487 -8.9593,6.47708 -7.9732,11.73293 0.9528,5.07932 7.3989,8.72287 24.9421,14.09836 17.771,5.44525 26.0463,9.71444 30.736,15.85621 6.7406,8.82794 7.1721,25.02798 0.9259,34.76189 -6.2926,9.8062 -18.5106,16.11904 -35.1626,18.16787 -4.5624,0.56135 -17.5558,0.68454 -23.1632,0.21959 z m 626.8946,-0.19299 c -23.6284,-3.33298 -37.9762,-17.88596 -42.0693,-42.67102 -1.5021,-9.09556 -0.971,-25.2496 1.0871,-33.06912 2.7204,-10.33553 6.627,-17.69716 12.8906,-24.29101 9.4721,-9.97172 21.2785,-15.01778 37.0286,-15.82605 11.0885,-0.56905 20.6558,1.18847 29.301,5.38259 6.5616,3.18328 11.4155,7.06432 15.3216,12.25053 7.253,9.63026 10.5106,19.99128 11.1694,35.52575 1.3737,32.39193 -13.2572,55.00664 -39.8309,61.56544 -5.5205,1.36257 -18.9409,1.97322 -24.8981,1.13289 z m 17.5207,-23.6537 c 8.7426,-2.05777 14.7879,-8.90813 17.9139,-20.29943 1.3336,-4.85957 1.4948,-23.08716 0.2488,-28.12896 -2.2363,-9.04885 -7.7059,-16.10842 -14.5884,-18.82909 -2.7815,-1.09952 -4.4898,-1.33124 -9.8139,-1.33124 -8.1813,0 -11.6656,1.23446 -16.7369,5.92957 -6.7393,6.23943 -9.6641,15.27537 -9.5378,29.46728 0.085,9.53133 1.1594,14.87733 4.2022,20.90517 5.1538,10.20947 16.4007,15.09033 28.3121,12.2867 z m -132.2339,23.03221 c -14.2863,-1.9266 -27.1535,-8.61922 -34.6121,-18.00279 -12.8559,-16.17376 -15.1782,-46.5651 -5.0923,-66.64326 2.8388,-5.65143 4.9998,-8.70313 9.4884,-13.39907 11.6873,-12.22733 27.2048,-17.43079 49.517,-16.60441 7.9279,0.29363 20.7138,1.90973 24.504,3.09724 0.9364,0.29339 1.0255,1.45652 1.0255,13.38576 v 13.06445 l -5.3662,-2.01564 c -8.8522,-3.32501 -14.9383,-4.4744 -23.9348,-4.52025 -6.8359,-0.0348 -8.4502,0.14584 -11.8764,1.32917 -9.8844,3.41385 -16.5499,10.85842 -19.5368,21.82014 -1.4174,5.20123 -1.4138,16.9906 0.01,22.22692 1.6313,6.01326 4.712,11.28324 8.8694,15.17234 6.7002,6.26763 14.13,8.64001 25.1743,8.03825 8.0597,-0.43915 19.1083,-2.92981 26.2243,-5.91168 0.9575,-0.40117 1.0256,0.37098 1.0256,11.61886 v 12.04859 l -5.4207,1.72571 c -2.9814,0.94913 -7.9259,2.1658 -10.9879,2.7037 -6.5828,1.15641 -23.1801,1.65189 -29.008,0.86597 z M 600.84338,336.29605 v -10.54836 h 17.87361 17.87361 v -56.84393 -56.84393 h -15.82254 -15.82254 v -10.54836 -10.54836 h 29.59401 29.59401 v 67.39229 67.39229 h 16.11555 16.11555 v 10.54836 10.54836 h -47.76063 -47.76063 z m 495.77282,0 v -10.54836 h 17.8736 17.8736 v -34.86818 -34.86819 h -15.8225 -15.8226 v -10.54836 -10.54835 h 29.594 29.594 v 45.41654 45.41654 h 16.1156 16.1155 v 10.54836 10.54836 h -47.7606 -47.7606 z m 124.2362,0 v -10.54836 h 17.8736 17.8736 v -56.84393 -56.84393 h -15.8225 -15.8225 v -10.54836 -10.54836 h 29.594 29.594 v 67.39229 67.39229 h 16.1155 16.1156 v 10.54836 10.54836 h -47.7607 -47.7606 z m 123.6502,0 v -10.54836 h 17.8736 17.8736 v -34.86818 -34.86819 h -15.8225 -15.8225 v -10.54836 -10.54835 h 29.594 29.594 v 45.41654 45.41654 h 16.1155 16.1156 v 10.54836 10.54836 h -47.7607 -47.7606 z m 371.5367,-45.41654 v -55.9649 h 11.7204 11.7204 v 3.95563 c 0,2.1756 0.1732,5.7461 0.3799,7.93444 l 0.3757,3.9788 4.4547,-4.59002 c 5.0524,-5.20577 8.4731,-7.71999 13.7734,-10.12322 10.8981,-4.94146 25.9754,-4.4906 35.4468,1.05996 6.4086,3.7557 11.723,11.37501 14.273,20.46309 1.2562,4.47716 1.2866,5.44268 1.4771,46.91118 l 0.1946,42.33994 h -13.4842 -13.4841 l -0.1693,-40.28887 -0.1694,-40.28887 -1.3925,-3.08087 c -2.5488,-5.63881 -7.1379,-8.2164 -13.4729,-7.56728 -6.4412,0.65998 -12.3218,4.9185 -20.2281,14.64838 l -4.4628,5.4921 v 35.54271 35.5427 h -13.4785 -13.4785 z m -577.2297,-69.77783 c -4.4441,-1.41369 -7.8616,-4.39296 -9.9837,-8.70346 -1.7668,-3.58882 -1.8683,-4.13297 -1.619,-8.6764 0.3979,-7.25145 3.5563,-12.16993 9.7862,-15.23962 3.7051,-1.82562 10.8709,-1.86228 14.7613,-0.0755 6.1456,2.82247 10.0134,9.04615 10.0134,16.11236 0,12.07073 -11.3561,20.27323 -22.9582,16.58262 z m 247.8865,0 c -4.4442,-1.41369 -7.8617,-4.39296 -9.9838,-8.70346 -1.7668,-3.58882 -1.8683,-4.13297 -1.619,-8.6764 0.398,-7.25145 3.5563,-12.16993 9.7862,-15.23962 3.7051,-1.82562 10.8709,-1.86228 14.7614,-0.0755 6.1455,2.82247 10.0133,9.04615 10.0133,16.11236 0,12.07073 -11.3561,20.27323 -22.9581,16.58262 z"
       id="path3" /><path
       style="fill:#8363af;stroke:none"
       d="m 2049.9201,137.8716 c -30.7294,4.08438 -54.736,26.95645 -56.9028,58.6084 -2.2552,32.94141 -0.057,66.81277 -0.057,99.84 v 202.88 65.28 c 0,19.55898 -0.4611,38.32562 11.4622,55.04 25.2675,35.42055 74.2454,26.24 112.0578,26.24 h 215.04 69.12 c 13.0683,0 26.7498,1.16137 39.68,-0.92051 24.6765,-3.97312 44.854,-23.43488 50.2878,-47.71949 2.7791,-12.42031 1.5522,-25.75145 1.5522,-38.4 v -281.6 -57.6 c 0,-20.7784 0.3144,-40.17621 -12.8839,-57.6 -25.5142,-33.68266 -74.9577,-24.32 -111.9161,-24.32 h -212.48 -69.12 c -11.703,0 -24.2394,-1.27027 -35.84,0.2716 z"
       id="path4" /><path
       style="display:inline;fill:#ffffff;fill-opacity:1;stroke:none"
       d="m 2196.4801,263.04 v 91.52 h -60.8 l 25.6,26.24 54.4,53.76 19.2,19.2 7.68,6.26766 7.68,-6.26766 19.2,-19.2 54.4,-53.76 25.6,-26.24 h -60.8 v -91.52 h -92.16 m -61.44,228.48 v 30.08 h 215.04 v -30.08 z"
       id="path5" /></g></svg>
