<?xml version="1.0" encoding="UTF-8" standalone="no"?>
<!-- Created with Inkscape (http://www.inkscape.org/) -->

<svg
   version="1.1"
   id="svg1"
   width="2627.8401"
   height="784"
   viewBox="0 0 2627.8401 784"
   xml:space="preserve"
   sodipodi:docname="x86Port.svg"
   xmlns:inkscape="http://www.inkscape.org/namespaces/inkscape"
   xmlns:sodipodi="http://sodipodi.sourceforge.net/DTD/sodipodi-0.dtd"
   xmlns="http://www.w3.org/2000/svg"
   xmlns:svg="http://www.w3.org/2000/svg"><sodipodi:namedview
     id="namedview1"
     pagecolor="#ffffff"
     bordercolor="#000000"
     borderopacity="0.25"
     inkscape:showpageshadow="2"
     inkscape:pageopacity="0.0"
     inkscape:pagecheckerboard="0"
     inkscape:deskcolor="#d1d1d1"><inkscape:page
       x="0"
       y="0"
       width="2627.8401"
       height="784"
       id="page2"
       margin="0"
       bleed="0" /></sodipodi:namedview><defs
     id="defs1" /><g
     id="g1"><path
       style="display:inline;fill:#000000;stroke:none;stroke-width:0.969715"
       d="m 2487.4771,764.52123 c 13.9165,-1.76093 27.2629,-3.50014 40.4581,-8.54551 37.5488,-14.35748 65.9338,-44.42245 78.1698,-81.37062 7.8148,-23.59781 5.907,-48.69225 5.907,-73.11464 V 489.99063 256.02376 178.6441 c 0,-12.82973 1.1534,-26.22551 -0.1073,-38.99448 -4.7456,-48.062936 -31.6505,-88.864536 -77.648,-109.805476 -27.1656,-12.36755 -56.0799,-11.443 -85.3411,-11.443 H 2340.8168 1919.1683 651.69426 281.88266 181.36976 c -27.4428,0 -54.1622,-0.98072 -80.284,8.56911 -49.243903,18.00293 -81.109203,63.42232 -84.652403,113.288656 -2.4139,33.97272 -0.056,68.90829 -0.056,102.9698 v 208.98601 131.60637 c 0,24.6692 -2.3144,50.55665 1.9478,74.94251 8.5721,49.04595 47.6036,89.28519 97.300703,101.91298 30.3953,7.72329 64.2832,4.10325 95.4556,4.10325 h 168.7854 549.9763 1046.85144 342.6289 111.8917 c 18.3231,0 38.1032,2.03917 56.2619,-0.2586 z"
       id="path1" /><path
       style="display:inline;fill:#8363af;stroke:none;stroke-width:0.975471"
       d="m 135.53066,16.644977 c -13.97368,1.774602 -27.37492,3.527317 -40.624278,8.611869 -37.722245,14.476238 -66.187254,44.751718 -78.491103,82.002454 -7.8572691,23.78839 -5.93123,49.06027 -5.93123,73.68238 v 112.36564 235.7836 77.98054 c 0,12.92934 -1.1581909,26.42916 0.107752,39.29726 4.766579,48.45158 31.756969,89.54376 77.967035,110.65811 27.277314,12.46358 56.310314,11.53184 85.691834,11.53184 h 108.543 423.38116 1272.68237 371.3314 100.9259 c 27.5556,0 54.3848,0.98835 80.6139,-8.63563 49.4664,-18.15007 81.4412,-63.89674 85.0002,-114.16833 2.4669,-34.84406 0.058,-70.67627 0.058,-105.61142 v -213.6789 -129.5582 c 0,-24.64676 2.3707,-50.57906 -2.1737,-74.91042 -9.276,-49.66312 -48.6607,-89.070348 -98.7531,-101.832546 -29.9462,-7.629601 -63.8694,-3.77886 -94.5783,-3.77886 H 2251.1669 1698.2959 647.14267 303.74056 192.0238 c -18.39839,0 -38.25982,-2.055003 -56.49314,0.260613 m 1.26949,42.896092 c 17.70683,-2.022247 36.75118,-0.175316 54.58889,-0.175316 h 109.17775 332.61129 1015.60692 578.896 181.5397 55.2237 c 13.2193,0 26.3827,-0.634482 39.3547,2.241937 9.1379,2.026221 18.0817,5.39486 26.0249,10.235064 7.1015,4.327295 13.1788,9.348137 19.0333,15.153892 28.5932,28.354944 23.4954,68.169174 23.4954,104.383374 v 384.99043 c 0,45.65596 8.5523,98.06555 -33.0072,130.2902 -6.3427,4.91785 -13.4314,9.13871 -20.947,12.1553 -21.1813,8.50168 -43.5947,6.76134 -66.0144,6.76134 H 2350.8234 1983.3006 705.54006 289.77597 176.15495 c -23.37455,0 -47.33359,2.12223 -69.18824,-7.55773 C 99.46975,714.69897 92.250661,710.37909 86.019821,705.13699 45.018843,670.64207 54.916852,615.46527 54.916852,568.3882 V 182.78374 c 0,-17.79 -2.220249,-37.17765 1.689739,-54.64777 8.557841,-38.237046 40.69038,-64.083444 80.193559,-68.594901 z"
       id="path2" /><path
       style="fill:#ffffff"
       d="m 764.88003,438.4 v -85.12 h 12.8 12.8 l 0.005,4.32 c 0.002,2.376 0.18921,6.27539 0.41491,8.6653 l 0.41036,4.3453 4.86509,-5.01282 c 2.6758,-2.75705 6.2511,-5.96267 7.94512,-7.12359 12.81622,-8.78305 30.57621,-10.18978 44.48768,-3.52377 6.74132,3.23027 14.14689,10.63807 17.87034,17.87573 5.1558,10.02183 7.59384,20.2127 8.26181,34.53385 0.72505,15.54491 -1.48042,27.58153 -7.15329,39.04 -8.4911,17.1509 -22.68605,26.97375 -43.43098,30.05408 -9.70298,1.44075 -17.52827,1.26387 -27.43559,-0.62014 l -2.4,-0.45639 V 499.44877 523.52 h -14.72 -14.72 z m 60.27623,13.31937 c 8.83519,-4.19581 14.85682,-12.58933 17.59054,-24.51937 1.38996,-6.06584 1.56262,-23.1998 0.29666,-29.44 -1.39616,-6.88198 -3.88168,-12.89235 -6.61613,-15.99886 -3.90745,-4.43909 -6.83841,-5.73676 -12.9873,-5.75006 -4.38105,-0.009 -5.67422,0.26042 -8.96,1.87004 -4.2065,2.06066 -11.94557,9.35399 -17.14703,16.15943 l -3.02708,3.96056 0.16705,26.69517 0.16706,26.69517 2.49295,0.86296 c 4.09824,1.41863 9.91727,2.07501 16.78813,1.89369 5.90727,-0.15589 6.90201,-0.37093 11.23515,-2.42873 z m -429.23625,25.67954 c -12.99912,-1.76701 -23.80062,-6.33849 -30.98076,-13.11187 -7.61022,-7.17909 -10.59524,-14.6848 -10.5498,-26.52704 0.0242,-6.31384 0.27817,-8.08689 1.78653,-12.47386 3.52523,-10.25291 9.66658,-17.66531 21.00254,-25.34932 l 6.2185,-4.21519 -5.34935,-3.63367 c -9.84131,-6.68494 -16.54889,-15.1558 -19.32723,-24.40796 -1.8164,-6.04878 -1.5395,-16.4825 0.61146,-23.04 6.12215,-18.66425 24.54471,-29.12 51.30811,-29.12 18.29185,0 32.76522,4.76544 41.61396,13.70163 6.95264,7.02136 9.22979,12.71326 9.24094,23.09837 0.008,7.40036 -1.25831,12.65483 -4.60937,19.12701 -3.14323,6.07081 -9.84519,13.17447 -16.63652,17.6337 -2.37105,1.55684 -4.24305,2.89707 -4.16,2.97828 0.0831,0.0812 2.86576,1.92919 6.18381,4.10662 10.82486,7.10369 16.97423,14.28178 20.38745,23.79805 2.1916,6.11031 2.76493,18.48984 1.15317,24.89962 -3.97073,15.79111 -17.41557,27.14564 -37.17344,31.39397 -6.74996,1.45137 -23.78443,2.08443 -30.72,1.14166 z m 25.28,-23.96515 c 10.12632,-3.06876 14.92046,-9.9056 13.89734,-19.81873 -0.86758,-8.40602 -7.25424,-14.92585 -22.65359,-23.12594 l -5.87626,-3.12909 -2.95318,1.6 c -8.61824,4.66927 -15.83907,11.98627 -18.31605,18.56 -1.87819,4.98457 -1.866,12.33782 0.0269,16.2481 2.44826,5.05744 7.72071,8.69863 15.0036,10.36159 4.96502,1.13371 16.05386,0.76396 20.8712,-0.69593 z m -3.86727,-75.38482 c 4.99406,-2.92967 11.50605,-9.64402 13.78071,-14.20894 1.67069,-3.35283 1.91427,-4.53015 1.92,-9.28 0.008,-6.38366 -1.01851,-8.68415 -5.34635,-11.9851 -4.26291,-3.25143 -8.72096,-4.32125 -18.00709,-4.32125 -9.11726,0 -13.49498,1.01446 -17.78345,4.12101 -4.04604,2.93093 -5.55208,6.31493 -5.56547,12.50534 -0.01,4.4377 0.22219,5.5168 1.73936,8.09765 0.96274,1.63771 3.47555,4.53879 5.58403,6.44684 4.22765,3.82581 17.70832,11.54731 19.22553,11.01206 0.528,-0.18627 2.53173,-1.2607 4.45273,-2.38761 z m 118.30821,99.38327 c -6.56716,-1.03938 -11.64147,-2.58768 -16.84093,-5.13858 -15.61724,-7.66197 -24.66711,-22.17446 -28.19547,-45.2146 -1.38638,-9.05309 -1.40259,-29.47592 -0.0324,-40.83903 4.06089,-33.67758 17.78062,-53.06957 44.27985,-62.58688 10.81195,-3.88315 23.91654,-5.57312 43.21583,-5.57312 h 12.73219 v 12.48 12.48 h -13.61679 c -7.48924,0 -16.05724,0.29435 -19.04,0.65411 -22.48214,2.71166 -34.23049,14.41402 -36.25696,36.11505 l -0.39246,4.20275 3.45615,-1.52847 c 16.84731,-7.45068 41.32019,-7.16958 56.40282,0.64786 6.26167,3.24546 14.17141,11.11529 16.95426,16.8687 3.90744,8.07844 4.94373,13.22735 4.95915,24.64 0.0158,11.69756 -0.70793,15.33757 -4.70819,23.68 -7.14691,14.90469 -19.63544,24.30873 -37.51798,28.25156 -5.30814,1.17036 -20.2444,1.67648 -25.39907,0.86065 z m 23.24964,-26.67991 c 5.13633,-2.41495 8.92255,-6.20311 11.56523,-11.57114 1.81839,-3.69368 2.09873,-4.97136 2.32458,-10.59452 0.39655,-9.87291 -1.37437,-15.93796 -6.00611,-20.5697 -8.0106,-8.0106 -22.18897,-8.83031 -39.20869,-2.26681 -7.93681,3.06075 -7.46042,2.15101 -6.60808,12.61927 1.46224,17.95884 5.78527,27.62554 14.27928,31.92978 4.5219,2.29142 7.21669,2.79558 13.73379,2.56945 4.90283,-0.17012 6.50979,-0.51295 9.92,-2.11633 z m 380.22924,26.68949 c -25.80487,-3.63999 -41.47426,-19.53349 -45.94446,-46.60158 -1.64046,-9.93338 -1.06048,-27.57542 1.18728,-36.11521 2.971,-11.28757 7.23746,-19.3273 14.07792,-26.52853 10.34467,-10.89025 23.2386,-16.40112 40.43946,-17.28384 12.10988,-0.62147 22.55848,1.29794 32,5.8784 7.166,3.4765 12.46706,7.71503 16.73288,13.37896 7.92119,10.51733 11.47879,21.83274 12.19829,38.79814 1.5003,35.37564 -14.47841,60.07346 -43.49977,67.23641 -6.02913,1.48809 -20.68559,2.15498 -27.1916,1.23725 z m 19.13457,-25.83251 c 9.54789,-2.24732 16.15008,-9.72869 19.56404,-22.16928 1.45641,-5.3072 1.63246,-25.21378 0.27168,-30.72 -2.44228,-9.88237 -8.41572,-17.59222 -15.93223,-20.5635 -3.03769,-1.2008 -4.90324,-1.45386 -10.71786,-1.45386 -8.93478,0 -12.74014,1.34817 -18.27855,6.47576 -7.3601,6.81416 -10.55421,16.68243 -10.41637,32.1816 0.0926,10.40929 1.26619,16.24773 4.58932,22.83081 5.62845,11.14989 17.91134,16.48035 30.91997,13.41847 z M 1227.6,477.15162 c -10.174,-1.67314 -19.0141,-5.83784 -23.8404,-11.23162 -1.4174,-1.584 -3.5468,-4.90426 -4.7321,-7.37836 -4.1162,-8.59206 -4.2251,-9.73983 -4.5339,-47.82164 l -0.279,-34.4 H 1177.9473 1161.68 V 364.8 353.28 h 16.32 16.32 v -15.58379 -15.5838 l 14.1136,-3.64917 c 7.7625,-2.00705 14.5305,-3.80915 15.04,-4.00468 0.7962,-0.30551 0.9264,2.39935 0.9264,19.23297 V 353.28 h 24 24 v 11.52 11.52 h -24.0383 -24.0383 l 0.2276,31.52 c 0.2617,36.26153 0.2452,36.1371 5.4993,41.39125 4.0369,4.03684 7.0658,4.85953 17.7097,4.81017 7.445,-0.0345 19.6727,-1.71222 23.6761,-3.24847 0.8372,-0.32126 0.9639,1.18878 0.9639,11.48554 v 11.85544 l -3.36,0.72672 c -13.0437,2.82115 -31.8828,3.86265 -41.44,2.29097 z m 104.8047,0.31024 c -14.8632,-2.71487 -25.1479,-12.14406 -28.362,-26.00277 -1.3653,-5.88709 -1.3504,-15.73287 0.031,-20.51843 3.5052,-12.14258 12.8167,-20.85522 27.529,-25.75863 9.4664,-3.15498 15.7816,-4.0125 32.2237,-4.37556 l 14.9465,-0.33003 -0.2551,-7.11822 c -0.2026,-5.65295 -0.5324,-7.64692 -1.6022,-9.68661 -4.1242,-7.86375 -12.266,-11.01435 -26.7557,-10.35348 -11.3671,0.51845 -24.7027,3.65218 -35.68,8.38442 l -2.4,1.03463 v -11.80261 -11.8026 l 3.5895,-1.34298 c 10.2767,-3.84503 23.3489,-6.32717 36.0905,-6.85288 27.2298,-1.12349 45.0476,5.87999 52.1352,20.49231 4.122,8.49839 4.1848,9.38825 4.1848,59.2646 V 475.52 h -12.3888 -12.3888 l -0.4112,-3.93388 c -0.2261,-2.16364 -0.4112,-5.61964 -0.4112,-7.68 0,-2.06037 -0.2295,-3.74612 -0.5101,-3.74612 -0.2805,0 -1.6485,1.17909 -3.04,2.6202 -5.7202,5.92445 -15.0222,11.31596 -23.238,13.46896 -5.5029,1.44207 -18.3646,2.11186 -23.2872,1.2127 z m 25.3763,-23.62704 c 4.4801,-1.57463 9.7983,-5.23173 15.915,-10.94407 l 4.944,-4.61719 V 430.01678 421.76 l -11.68,0.0111 c -12.8988,0.0123 -18.4193,0.82878 -23.9723,3.54561 -3.9278,1.92171 -7.3574,5.65638 -8.4049,9.15268 -0.9283,3.09841 -0.9613,9.02758 -0.063,11.40894 0.8258,2.19043 4.1315,5.74125 6.4999,6.98194 4.4604,2.33654 11.6906,2.75691 16.7618,0.97454 z m 399.3221,23.61576 c -29.1707,-4.14336 -45.4476,-21.827 -48.3201,-52.49604 -2.3576,-25.17202 6.0471,-49.55129 21.4147,-62.11737 5.0883,-4.16063 15.3383,-9.14036 21.8824,-10.63094 7.5221,-1.71339 23.0607,-1.53045 30.0454,0.35373 18.068,4.874 30.0845,16.9276 35.0447,35.15302 1.0881,3.99769 1.3958,7.3741 1.6314,17.90075 0.1597,7.13554 0.1112,13.68754 -0.1078,14.56 l -0.3981,1.58627 h -39.9878 -39.9878 v 2.59366 c 0,4.39996 1.889,11.18682 4.2047,15.10662 5.7451,9.72473 16.3006,14.90019 30.4474,14.92861 10.151,0.0204 27.3218,-2.27971 36.024,-4.82555 1.7359,-0.50784 3.2479,-0.92334 3.36,-0.92334 0.1121,0 0.2039,5.17595 0.2039,11.50212 v 11.50212 l -3.36,0.94729 c -14.331,4.04034 -40.6069,6.49108 -52.097,4.85905 z m 32.1859,-81.27453 c -0.7395,-7.95662 -4.483,-15.47206 -9.575,-19.22258 -6.4392,-4.74279 -17.5099,-5.77875 -25.0186,-2.34115 -4.6211,2.11562 -9.3249,6.57907 -11.7567,11.156 -2.0213,3.8042 -3.9786,10.30019 -3.9786,13.20406 V 400.64 h 25.3719 25.3719 z M 1473.36,476.7129 c -7.4819,-0.76611 -14.9543,-2.17874 -23.84,-4.50687 L 1442,470.2357 V 387.75785 305.28 h 14.8103 14.8103 l -0.4251,29.28 c -0.2338,16.104 -0.5876,30.576 -0.7862,32.16 l -0.3612,2.88 3.0273,-3.40771 c 11.0825,-12.47492 26.4126,-17.67632 42.8361,-14.534 7.8729,1.50634 13.8525,4.76434 19.8838,10.83384 10.0724,10.13604 15.091,24.14838 16.0695,44.86787 0.7264,15.38256 -1.525,27.66168 -7.1582,39.04 -8.4911,17.1509 -22.686,26.97375 -43.431,30.05408 -7.1038,1.05481 -19.0592,1.16565 -27.9156,0.25882 z m 28.9163,-24.99353 c 8.8352,-4.19581 14.8568,-12.58933 17.5905,-24.51937 1.39,-6.06584 1.5626,-23.1998 0.2967,-29.44 -1.3962,-6.88198 -3.8817,-12.89235 -6.6161,-15.99886 -3.9075,-4.43909 -6.8385,-5.73676 -12.9873,-5.75006 -4.3811,-0.009 -5.6743,0.26042 -8.9601,1.87004 -4.2065,2.06066 -11.9455,9.35399 -17.147,16.15943 l -3.0271,3.96056 0.1671,26.69517 0.167,26.69517 2.493,0.86296 c 4.0982,1.41863 9.9173,2.07501 16.7881,1.89369 5.9073,-0.15589 6.902,-0.37093 11.2352,-2.42873 z M 210.64001,475.17271 c 0,-0.19101 10.19028,-14.06051 22.64507,-30.82112 l 22.64508,-30.47382 -21.1227,-29.49889 C 223.18998,368.1545 213.39643,354.52 213.04402,354.08 c -0.50956,-0.63622 3.0368,-0.8 17.32228,-0.8 h 17.96302 l 10.51809,15.52 c 5.78495,8.536 11.94493,17.58971 13.68884,20.11936 l 3.17076,4.59937 13.5692,-20.11937 13.5692,-20.11936 h 16.33507 c 12.89113,0 16.23635,0.16866 15.86681,0.8 -0.25754,0.44 -9.63454,13.95711 -20.83777,30.03802 -11.20323,16.08092 -20.36951,29.38298 -20.36951,29.56015 0,0.2901 38.94406,54.74625 42.73839,59.76183 l 1.57353,2.08 H 319.87457 301.5972 L 287.88745,455.2 c -7.54035,-11.176 -13.95248,-20.32 -14.24916,-20.32 -0.29668,0 -6.72539,9.144 -14.28602,20.32 l -13.74661,20.32 h -17.48283 c -9.61555,0 -17.48282,-0.15628 -17.48282,-0.34729 z M 1040.72,414.4 v -61.12 h 13.0516 c 14.9646,0 13.7969,-0.55612 13.8845,6.61234 0.031,2.52321 0.2468,5.97581 0.48,7.67243 l 0.4239,3.08477 2.4388,-3.20529 c 7.7589,-10.1977 18.8231,-15.8306 32.4412,-16.51619 12.2012,-0.61424 21.3501,2.45721 28.4193,9.54086 7.2902,7.30519 11.0351,17.54045 11.7122,32.01108 l 0.3818,8.16 h -14.7236 -14.7235 l -0.3525,-6.24 c -0.7609,-13.47232 -6.4708,-20.17514 -16.3205,-19.15856 -7.2415,0.74738 -15.0346,6.53093 -22.8727,16.97459 l -4.1605,5.54354 V 436.63979 475.52 h -15.04 -15.04 z m 537.6001,49.6 v -11.52 h 19.52 19.52 V 390.4 328.32 h -17.28 -17.28 V 316.8 305.28 h 32.32 32.32 v 73.6 73.6 h 17.6 17.6 V 464 475.52 h -52.16 -52.16 z"
       id="path6" /><path
       style="fill:#8363af;stroke:none"
       d="m 2049.9201,137.8716 c -30.7294,4.08438 -54.736,26.95645 -56.9028,58.6084 -2.2552,32.94141 -0.057,66.81277 -0.057,99.84 v 202.88 65.28 c 0,19.55898 -0.4611,38.32562 11.4622,55.04 25.2675,35.42055 74.2454,26.24 112.0578,26.24 h 215.04 69.12 c 13.0683,0 26.7498,1.16137 39.68,-0.92051 24.6765,-3.97312 44.854,-23.43488 50.2878,-47.71949 2.7791,-12.42031 1.5522,-25.75145 1.5522,-38.4 v -281.6 -57.6 c 0,-20.7784 0.3144,-40.17621 -12.8839,-57.6 -25.5142,-33.68266 -74.9577,-24.32 -111.9161,-24.32 h -212.48 -69.12 c -11.703,0 -24.2394,-1.27027 -35.84,0.2716 z"
       id="path4" /><path
       style="fill:#ffffff;fill-opacity:1;stroke:none"
       d="m 2196.4801,263.04 v 91.52 h -60.8 l 25.6,26.24 54.4,53.76 19.2,19.2 7.68,6.26766 7.68,-6.26766 19.2,-19.2 54.4,-53.76 25.6,-26.24 h -60.8 v -91.52 h -92.16 m -61.44,228.48 v 30.08 h 215.04 v -30.08 z"
       id="path5" /></g></svg>
