<?xml version="1.0" encoding="UTF-8" standalone="no"?>
<!-- Created with Inkscape (http://www.inkscape.org/) -->

<svg
   version="1.1"
   id="svg1"
   width="2627.8401"
   height="784"
   viewBox="0 0 2627.8401 784"
   xml:space="preserve"
   xmlns="http://www.w3.org/2000/svg"
   xmlns:svg="http://www.w3.org/2000/svg"><defs
     id="defs1" /><g
     id="g1"><path
       style="fill:#000000;stroke:none;stroke-width:0.969715"
       d="m 2487.4771,764.52123 c 13.9165,-1.76093 27.2629,-3.50014 40.4581,-8.54551 37.5488,-14.35748 65.9338,-44.42245 78.1698,-81.37062 7.8148,-23.59781 5.907,-48.69225 5.907,-73.11464 V 489.99063 256.02376 178.6441 c 0,-12.82973 1.1534,-26.22551 -0.1073,-38.99448 -4.7456,-48.062936 -31.6505,-88.864536 -77.648,-109.805476 -27.1656,-12.36755 -56.0799,-11.443 -85.3411,-11.443 H 2340.8168 1919.1683 651.69426 281.88266 181.36976 c -27.4428,0 -54.1622,-0.98072 -80.284,8.56911 -49.243903,18.00293 -81.109203,63.42232 -84.652403,113.288656 -2.4139,33.97272 -0.056,68.90829 -0.056,102.9698 v 208.98601 131.60637 c 0,24.6692 -2.3144,50.55665 1.9478,74.94251 8.5721,49.04595 47.6036,89.28519 97.300703,101.91298 30.3953,7.72329 64.2832,4.10325 95.4556,4.10325 h 168.7854 549.9763 1046.85144 342.6289 111.8917 c 18.3231,0 38.1032,2.03917 56.2619,-0.2586 z"
       id="path1" /><path
       style="fill:#8363af;stroke:none;stroke-width:0.975471"
       d="m 135.53066,16.644977 c -13.97368,1.774602 -27.37492,3.527317 -40.624278,8.611869 -37.722245,14.476238 -66.187254,44.751718 -78.491103,82.002454 -7.8572691,23.78839 -5.93123,49.06027 -5.93123,73.68238 v 112.36564 235.7836 77.98054 c 0,12.92934 -1.1581909,26.42916 0.107752,39.29726 4.766579,48.45158 31.756969,89.54376 77.967035,110.65811 27.277314,12.46358 56.310314,11.53184 85.691834,11.53184 h 108.543 423.38116 1272.68237 371.3314 100.9259 c 27.5556,0 54.3848,0.98835 80.6139,-8.63563 49.4664,-18.15007 81.4412,-63.89674 85.0002,-114.16833 2.4669,-34.84406 0.058,-70.67627 0.058,-105.61142 v -213.6789 -129.5582 c 0,-24.64676 2.3707,-50.57906 -2.1737,-74.91042 -9.276,-49.66312 -48.6607,-89.070348 -98.7531,-101.832546 -29.9462,-7.629601 -63.8694,-3.77886 -94.5783,-3.77886 H 2251.1669 1698.2959 647.14267 303.74056 192.0238 c -18.39839,0 -38.25982,-2.055003 -56.49314,0.260613 m 1.26949,42.896092 c 17.70683,-2.022247 36.75118,-0.175316 54.58889,-0.175316 h 109.17775 332.61129 1015.60692 578.896 181.5397 55.2237 c 13.2193,0 26.3827,-0.634482 39.3547,2.241937 9.1379,2.026221 18.0817,5.39486 26.0249,10.235064 7.1015,4.327295 13.1788,9.348137 19.0333,15.153892 28.5932,28.354944 23.4954,68.169174 23.4954,104.383374 v 384.99043 c 0,45.65596 8.5523,98.06555 -33.0072,130.2902 -6.3427,4.91785 -13.4314,9.13871 -20.947,12.1553 -21.1813,8.50168 -43.5947,6.76134 -66.0144,6.76134 H 2350.8234 1983.3006 705.54006 289.77597 176.15495 c -23.37455,0 -47.33359,2.12223 -69.18824,-7.55773 C 99.46975,714.69897 92.250661,710.37909 86.019821,705.13699 45.018843,670.64207 54.916852,615.46527 54.916852,568.3882 V 182.78374 c 0,-17.79 -2.220249,-37.17765 1.689739,-54.64777 8.557841,-38.237046 40.69038,-64.083444 80.193559,-68.594901 z"
       id="path2" /><path
       style="fill:#ffffff;stroke:none;stroke-width:0.858516"
       d="m 907.0922,315.98217 c -20.8621,3.76288 -14.9636,36.24565 6.0439,32.45655 20.934,-3.77587 14.944,-36.24213 -6.0439,-32.45655 m 543.4063,3.59091 v 19.78022 h 29.6704 v 106.59335 h -33.5165 v 19.78021 h 89.5604 V 445.94665 H 1505.993 V 319.57308 h -55.4945 m 116.4835,0 v 19.78022 h 29.6704 v 106.59335 h -33.5166 v 19.78021 h 89.5604 v -19.78021 h -30.2197 V 319.57308 h -55.4945 m -308.2417,7.69232 -17.033,4.6008 -7.3606,2.39241 -0.8811,7.29249 v 19.23076 h -28.0219 v 19.78021 h 28.0219 c 0,17.98035 -1.2473,36.50746 0.4563,54.39558 0.8369,8.78842 1.9668,17.68691 8.906,24.07446 8.5873,7.90482 21.3312,8.89678 32.396,8.89256 8.4841,-0.003 16.9726,-1.68672 25.2746,-3.29671 V 444.2983 c -9.9395,2.05048 -24.7379,6.85841 -34.0659,0.63001 -6.6934,-4.46939 -7.1428,-12.54906 -7.1428,-19.86077 v -44.50547 h 41.2087 v -19.78021 h -41.2087 v -22.52747 l -0.5495,-10.98899 m -719.23035,59.89008 c 0.003,-4.13014 0.61464,-8.10782 1.73357,-12.08791 7.24312,-25.76455 36.51711,-23.07692 57.60706,-23.07692 v -21.42856 c -26.54237,0 -57.88971,-0.47818 -74.70955,24.17582 -9.64261,14.13383 -11.90825,31.66237 -12.10571,48.35163 -0.32607,27.56067 5.81846,59.4983 38.46364,64.1288 5.0155,0.71143 10.32969,1.14782 15.3846,0.54945 6.64622,-0.78672 13.11759,-2.13751 19.23076,-4.95821 23.46183,-10.82559 34.16901,-46.41372 16.85234,-67.41236 -13.89026,-16.84367 -44.11177,-18.67195 -62.45671,-8.24174 m 82.41754,51.09887 h 63.18678 v 27.47251 h 24.17583 v -27.47251 h 20.8791 v -21.97801 h -20.8791 v -85.71425 h -24.72528 l -9.70947,0.56471 -5.56534,8.2265 -11.75804,19.23076 -22.79207,37.36262 -12.4283,20.87911 -0.38411,21.42856 m 63.18678,-82.96699 v 60.98898 h -37.91206 c 2.50458,-7.85965 9.14373,-15.52811 13.50352,-22.52746 7.74542,-12.4348 14.7941,-27.43584 24.40854,-38.46152 m -513.18658,30.76921 c 12.49452,-4.2531 23.92417,-8.39944 37.36264,-8.23964 7.53809,0.0896 15.72329,2.9467 18.71988,10.43745 1.64192,4.10437 1.06032,8.85642 1.06032,13.1868 -17.9679,0 -38.88806,-1.24082 -53.844,10.68842 -18.14869,14.47586 -13.70322,46.45441 8.78908,53.9517 11.85357,3.95116 26.17769,1.89065 36.81317,-4.44946 4.29476,-2.56022 7.50994,-6.25405 11.53845,-9.09179 l 0.54946,13.18681 h 21.42856 v -62.08788 c 0,-11.44741 0.81226,-23.56643 -7.03729,-32.94539 -12.59358,-15.04727 -39.39228,-13.54292 -56.69894,-10.31789 -4.35383,0.8113 -15.38868,1.89548 -18.1166,5.70776 -1.02787,1.43644 -0.56473,4.02467 -0.56473,5.6874 v 14.28571 m 140.10983,-10.43956 h -0.54944 l -1.0989,-14.83515 h -22.52746 v 104.945 h 25.82415 v -47.25272 c 0,-5.62469 -1.70419,-14.63683 0.70249,-19.78021 4.90463,-10.48188 25.12071,-29.24126 34.23338,-12.63736 2.5607,4.66577 2.42675,10.23747 2.42675,15.38461 h 25.27472 c 0,-12.04797 -0.83313,-25.51432 -9.91214,-34.59334 -14.58001,-14.58002 -45.0314,-9.53117 -54.37355,8.76917 m 99.4505,0 h -0.54944 l -0.54946,-14.83515 h -18.68131 v 104.945 h 21.97802 v -46.15382 c 0,-7.08501 -1.2933,-15.61473 0.29081,-22.52746 1.15578,-5.04345 7.22748,-19.77344 13.99278,-18.41296 7.13034,1.43389 4.94717,15.52187 4.94717,20.61075 v 66.48349 h 21.97802 v -46.15382 c 0,-7.15265 -1.19511,-15.51248 0.20815,-22.52746 1.01794,-5.08879 6.75046,-19.56867 13.52766,-18.38539 7.40825,1.29344 5.49494,15.38417 5.49494,20.58318 v 66.48349 h 21.97801 v -58.24173 c 0,-11.39348 1.11423,-24.27199 -2.79685,-35.16481 -7.50058,-20.89014 -35.58462,-16.04886 -41.70862,3.29669 -2.14491,-5.05012 -2.46599,-10.01049 -7.19245,-13.64256 -12.32175,-9.46862 -29.10282,0.40066 -32.91743,13.64256 m 592.85688,0.54946 h -0.5494 l -0.5495,-15.38461 h -21.9781 v 104.945 h 25.2748 v -48.90107 c 0,-5.92568 -1.7059,-14.77315 1.8646,-19.78021 5.675,-7.95851 18.3385,-22.81473 29.4519,-15.02638 7.3758,5.16903 6.0461,15.45104 6.0461,23.26813 v 60.43953 h 25.2747 v -57.69228 c 0,-11.94078 0.8722,-24.34815 -5.1168,-35.16482 -11.6187,-20.98447 -49.6841,-18.25115 -59.7183,3.29671 m 94.5054,64.83513 v 22.52746 c 20.9683,4.32789 46.2483,8.59777 66.4835,-0.97851 16.217,-7.67459 25.1217,-28.9673 13.649,-44.62542 -8.3185,-11.3531 -25.3272,-13.73875 -37.8248,-17.94957 -5.2793,-1.77876 -13.8577,-4.69568 -14.7097,-11.17174 -0.8608,-6.54403 6.0156,-10.08142 11.413,-11.03099 12.3683,-2.17594 26.182,1.17153 37.912,4.98704 v -14.2857 c 0,-1.60178 0.4894,-4.28944 -0.5647,-5.64414 -1.092,-1.40335 -3.8674,-1.52377 -5.4792,-1.815 -4.744,-0.85714 -9.4824,-1.57819 -14.2858,-1.93028 -18.3295,-1.34362 -44.89,-0.32979 -53.9004,19.27952 -1.8942,4.12251 -3.0541,9.20869 -2.4597,13.73626 2.6559,20.22797 18.1434,25.17058 35.4811,30.58181 6.5266,2.03699 16.2559,3.95217 20.2503,10.09914 5.0657,7.79555 -4.0637,14.104 -10.9097,15.31676 -15.3279,2.71532 -30.7028,-2.4187 -45.0549,-7.09664 m 236.2637,-54.94503 c 12.4944,-4.2531 23.9243,-8.39944 37.3626,-8.23964 7.5383,0.0896 15.7231,2.94666 18.7198,10.43745 1.6419,4.10437 1.0604,8.85642 1.0604,13.1868 -17.9679,0 -38.888,-1.24073 -53.8439,10.68842 -18.149,14.47579 -13.7033,46.45441 8.789,53.9517 11.8535,3.95116 26.1777,1.89065 36.8131,-4.44946 4.2946,-2.56015 7.51,-6.25412 11.5385,-9.09179 l 0.5494,13.18681 h 21.4287 v -62.08788 c 0,-11.44751 0.8121,-23.5663 -7.0374,-32.94539 -12.5933,-15.04733 -39.3925,-13.54288 -56.6989,-10.31789 -4.3538,0.8113 -15.3887,1.89548 -18.1166,5.70776 -1.0278,1.43644 -0.5647,4.02467 -0.5647,5.6874 v 14.28571 m 429.1207,56.59338 c -19.2287,4.40825 -53.7621,13.14233 -62.2257,-12.63736 -1.1188,-3.40764 -1.5082,-6.875 -1.5106,-10.43955 h 68.6813 c 2.9784,-16.04272 0.4382,-36.09366 -11.0827,-48.32999 -16.7176,-17.75562 -49.6298,-16.43941 -66.9312,-0.47739 -9.2308,8.51622 -14.276,21.72811 -15.7849,33.97222 -2.6364,21.39415 2.2625,46.25584 22.9198,57.20347 15.1005,8.00284 33.732,6.74183 49.9999,4.01275 3.6004,-0.60398 13.0471,-0.82921 15.3693,-3.91017 1.0445,-1.3859 0.5648,-4.03265 0.5648,-5.65773 v -13.73625 m 59.3406,-67.03294 h -0.5495 l -1.0988,-14.83515 h -22.5275 v 104.945 h 25.8242 v -46.70327 c 0,-5.7633 -1.7621,-15.06253 0.7024,-20.32966 4.9044,-10.48152 25.1211,-29.24166 34.2335,-12.63736 2.5605,4.66584 2.4266,10.23747 2.4266,15.38461 h 25.2748 c 0,-12.04786 -0.833,-25.51439 -9.9121,-34.59334 -14.5805,-14.58012 -45.0311,-9.53107 -54.3736,8.76917 M 869.1802,360.78186 v 19.78021 h 29.6703 v 65.38458 H 865.334 v 19.78021 h 89.5603 v -19.78021 h -30.2197 v -85.16479 h -55.4944 m 875.2743,40.65932 h -43.4066 c 0.1489,-17.99101 22.5274,-33.92691 37.1972,-18.58593 4.7368,4.95366 6.2049,11.96837 6.2094,18.58593 m -1186.26324,0.70673 c 7.04164,-0.86481 15.6711,0.33629 20.62219,5.93799 11.26457,12.74477 3.48205,36.04166 -13.47934,38.25121 -16.48384,2.14734 -23.97631,-10.04849 -26.05523,-24.56627 -0.45293,-3.16289 -2.09635,-10.16134 -0.30312,-12.97228 2.89132,-4.53219 14.32252,-6.04973 19.2155,-6.65065 m -329.12073,17.42513 c 0,4.33916 1.43631,11.76825 -1.27357,15.38461 -2.66617,3.55801 -6.60518,6.51084 -10.26488,8.97179 -6.13251,4.12379 -14.67845,6.21261 -21.42856,2.02016 -9.41821,-5.84958 -6.1837,-19.3713 2.74725,-23.72767 3.34297,-1.63065 7.29931,-2.34681 10.989,-2.59972 6.3545,-0.43561 12.86106,-0.0492 19.23076,-0.0492 m 1163.18627,0 c 0,4.33912 1.4362,11.76824 -1.2735,15.3846 -2.666,3.55784 -6.6054,6.51097 -10.265,8.9718 -6.1325,4.12382 -14.6784,6.2126 -21.4285,2.02016 -9.4183,-5.84962 -6.1838,-19.37131 2.7473,-23.72767 3.3428,-1.63062 7.2994,-2.34684 10.9889,-2.59973 6.3545,-0.4356 12.8612,-0.0492 19.2308,-0.0492 z"
       id="path7" /><path
       style="fill:#8363af;stroke:none"
       d="m 2049.9201,137.8716 c -30.7294,4.08438 -54.736,26.95645 -56.9028,58.6084 -2.2552,32.94141 -0.057,66.81277 -0.057,99.84 v 202.88 65.28 c 0,19.55898 -0.4611,38.32562 11.4622,55.04 25.2675,35.42055 74.2454,26.24 112.0578,26.24 h 215.04 69.12 c 13.0683,0 26.7498,1.16137 39.68,-0.92051 24.6765,-3.97312 44.854,-23.43488 50.2878,-47.71949 2.7791,-12.42031 1.5522,-25.75145 1.5522,-38.4 v -281.6 -57.6 c 0,-20.7784 0.3144,-40.17621 -12.8839,-57.6 -25.5142,-33.68266 -74.9577,-24.32 -111.9161,-24.32 h -212.48 -69.12 c -11.703,0 -24.2394,-1.27027 -35.84,0.2716 z"
       id="path4" /><path
       style="fill:#ffffff;fill-opacity:1;stroke:none"
       d="m 2196.4801,263.04 v 91.52 h -60.8 l 25.6,26.24 54.4,53.76 19.2,19.2 7.68,6.26766 7.68,-6.26766 19.2,-19.2 54.4,-53.76 25.6,-26.24 h -60.8 v -91.52 h -92.16 m -61.44,228.48 v 30.08 h 215.04 v -30.08 z"
       id="path5" /></g></svg>
